<svg width="125" height="48" viewBox="0 0 125 48" fill="none" xmlns="http://www.w3.org/2000/svg">
<path fill-rule="evenodd" clip-rule="evenodd" d="M82.7308 30.6709C82.2487 27.5294 82.6404 22.0841 82.8212 20.8575C83.243 16.6987 83.9058 12.3904 84.9301 8.32136C85.5929 6.04752 87.8525 6.46638 87.7019 9.12918C87.2198 19.7804 87.1294 21.2464 87.7019 29.6237C87.732 30.1623 86.8583 30.7008 85.9846 31.1496C85.4121 31.4488 83.725 32.496 83.1827 31.8976C82.9718 31.7181 82.8212 31.3291 82.7308 30.6709ZM75.1687 30.6709C75.2591 31.2992 75.4097 31.6882 75.6206 31.9275C76.1328 32.5259 77.8501 31.4488 78.4225 31.1795C79.2962 30.7607 80.2001 30.1922 80.1398 29.6537C79.5674 21.2464 79.6578 19.8103 80.1398 9.15909C80.2904 6.4963 78.0309 6.10735 77.368 8.35128C76.3437 12.4203 75.6809 16.7286 75.2591 20.8874C75.1085 22.0841 74.6867 27.5294 75.1687 30.6709ZM94.2396 43.3865C84.8096 43.2369 78.2116 43.3566 68.3598 43.2668C59.1709 43.1771 52.8139 43.0873 41.2449 43.2668C29.6758 43.4464 12.744 44.0447 0 45.5407C11.6896 47.5153 29.3143 47.9043 41.2449 47.9342C53.1755 47.9641 59.5023 47.7846 68.4804 47.8744C77.9706 47.994 83.8756 48.0838 93.2454 47.8744C102.615 47.6949 115.208 47.0965 125 45.7202C115.751 44.1046 103.67 43.566 94.2396 43.3865ZM7.83321 26.0634C11.2678 30.7307 15.8472 35.4879 21.451 37.4326C29.6457 40.1553 37.7501 40.5143 46.1557 38.3003C48.0537 37.7617 47.6922 36.3855 44.7698 36.5949C38.3827 36.8941 30.7906 36.0264 23.2285 33.4833C18.7997 31.9275 12.7742 28.068 8.10436 22.0841C7.53194 21.4259 6.92938 20.8275 5.99542 21.2165C5.12172 21.7251 5.5435 22.5628 6.0858 23.5801C6.6281 24.5375 7.11015 25.0461 7.83321 26.0634ZM29.8867 14.1556C28.8021 13.3777 28.1092 12.9289 26.7233 12.4801C24.4637 11.7022 21.692 13.8564 25.1868 16.2499L28.1996 18.3143C22.4753 18.0151 19.1612 20.7079 19.3119 23.6998C19.4625 26.0933 20.6978 29.145 26.3618 29.6836C29.0733 29.9229 33.2309 28.9954 34.4059 27.4696C35.4905 26.0933 34.6469 24.7768 32.779 25.5547C30.1579 26.5421 25.3676 26.7216 25.1868 23.6998C25.0964 22.5329 26.5727 21.0968 29.2842 21.2464C31.363 21.396 32.538 22.1739 33.7732 23.0116C35.0084 23.9391 36.093 24.9264 36.8764 25.6146C37.4187 26.0634 39.3468 26.213 38.8949 24.1486C38.6539 23.3108 37.4187 21.3062 35.4905 19.1521C33.9841 17.4467 32.3572 15.8311 29.8867 14.1556ZM44.4083 30.3418C48.0839 29.6836 49.048 24.2084 49.8313 21.3362C50.6146 18.4938 53.0851 15.3823 56.128 15.3823C58.1465 15.2925 57.9356 12.899 55.194 12.5998C51.2774 12.1211 48.7166 14.0658 47.3608 17.8655C45.764 22.503 44.2878 24.8965 39.7686 27.1704C37.7199 28.5766 40.8833 30.9701 44.4083 30.3418ZM51.8197 7.06476C55.9472 6.43646 60.135 5.868 63.5695 5.80816C67.0041 5.77824 70.981 5.98767 74.054 6.46638C77.127 6.94508 75.8315 3.41463 73.4213 2.72649C71.4028 2.18795 67.7573 2.33755 63.69 2.33755C59.6529 2.33755 55.0133 3.80358 51.639 4.70116C50.1627 5.0901 49.6204 5.68848 49.5601 6.31678C49.4999 6.94508 50.2832 7.48363 51.8197 7.06476ZM90.0217 24.9264C88.5756 22.862 88.0634 21.3661 89.8409 19.1221C91.6185 16.9081 91.9499 16.0106 94.571 14.1556C97.3729 12.151 98.7587 12.8092 101.32 13.7966C103.85 15.3523 105.025 16.6389 106.743 18.4938C108.369 20.3488 108.55 21.9645 108.249 23.3707C107.857 24.1485 107.104 24.8367 106.291 24.1785C105.477 25.1359 104.272 26.9011 101.53 29.0553C98.9094 31.2992 96.4992 31.4189 93.7575 28.9954C91.0762 26.7515 91.4979 27.0208 90.0217 24.9264ZM94.2396 23.1014C95.1133 24.4178 95.8364 25.0162 96.7703 25.8539C97.7043 26.7814 98.8793 26.7814 100.205 26.1531C101.44 25.5248 102.133 25.3154 103.308 24.2084C104.483 23.1313 104.845 21.755 103.67 20.1394C102.404 18.6434 101.079 17.5664 99.6023 16.3696C97.644 15.1429 96.9812 16.0106 96.1376 16.968C94.9024 17.8057 94.9024 18.2545 93.9986 19.4213C92.8537 20.8575 93.4563 21.7849 94.2396 23.1014ZM61.2196 8.41112C60.1952 12.4801 59.5324 16.7885 59.1106 20.9472C58.96 22.144 58.5382 27.5892 59.0202 30.7607C59.1106 31.389 59.2613 31.7779 59.4722 32.0173C59.9843 32.6156 61.7016 31.5386 62.274 31.2693C63.1477 30.8504 64.0516 30.282 63.9913 29.7434C63.4189 21.3661 63.5093 19.9 63.9913 9.24885C64.142 6.55614 61.8824 6.16719 61.2196 8.41112ZM69.8361 15.8011C69.113 15.861 68.3297 16.3397 68.2996 17.2672C67.6067 19.9898 67.456 22.2936 67.3054 25.1359C67.1849 27.7987 67.1246 29.175 67.4259 31.2992C67.456 32.0472 67.5464 32.6755 67.9682 32.6156C68.5406 32.5259 69.5348 32.2865 70.4085 31.7779C71.4028 31.1795 72.1861 30.5213 72.0957 29.7733C71.3726 24.0289 70.981 24.2682 71.1617 16.8483C71.1015 15.9507 70.4989 15.7413 69.8361 15.8011ZM73.12 13.9761C73.4816 13.1683 72.9091 11.8219 71.2521 11.4629C70.1073 11.1936 68.8118 11.3731 68.3598 12.5998C67.9983 13.617 68.8118 14.8437 70.2278 15.2028C71.704 15.5319 72.7585 14.754 73.12 13.9761ZM105.989 15.861C107.857 15.1429 111.412 15.0532 114.184 16.8782C115.148 16.9979 115.329 16.9081 115.48 15.861C115.66 14.5744 114.877 12.9588 112.618 12.7195C110.358 12.4801 108.4 12.899 106.2 13.647C104.543 14.2453 103.88 15.6815 105.989 15.861ZM10.4543 19.7205C15.3049 14.754 20.6978 10.5653 26.6028 7.7529C29.3143 6.46638 31.7848 5.29953 34.7072 4.67123C35.9725 4.55156 36.786 3.56423 36.6655 2.33755C36.5751 1.4699 36.0629 0.632164 34.9181 0.243216C33.8937 -0.085894 32.5078 -0.0858968 31.0617 0.273132C22.8368 2.75641 12.6537 9.99683 8.255 17.8356C6.68836 20.8575 8.91781 21.3661 10.4543 19.7205Z" fill="#FFC627"/>
</svg>
