<?xml version="1.0" encoding="UTF-8"?>
<svg xmlns="http://www.w3.org/2000/svg" version="1.1" viewBox="0 0 272.1 120">
  <defs>
    <style>
      .cls-1 {
        fill: #fff;
      }

      .cls-2 {
        fill: none;
      }

      .cls-3 {
        fill: #69d0f0;
      }

      .cls-4 {
        fill: #ffc400;
      }

      .cls-5 {
        fill: #005ea6;
      }
    </style>
  </defs>
  <!-- Generator: Adobe Illustrator 28.7.2, SVG Export Plug-In . SVG Version: 1.2.0 Build 154)  -->
  <g>
    <g id="Capa_1">
      <g>
        <path class="cls-3" d="M46,99c-8.2,0-16.1-4.3-22.1-12-6.3-8.1-9.7-19-9.7-30.5s3.5-22.4,9.7-30.5c6-7.7,13.8-12,22.1-12s16.1,4.3,22.1,12c6.3,8.1,9.7,19,9.7,30.5s-3.5,22.4-9.7,30.5c-6,7.7-13.8,12-22.1,12Z"/>
        <path class="cls-1" d="M77.7,53.5h-8.4v-10.3h-11.3v-3.2h-23.4v3.2h-12.1v10.3h-8.3c0,1,0,2,0,2.9,0,7.6,1.5,15,4.4,21.4h54.9c2.8-6.4,4.4-13.8,4.4-21.4s0-2,0-2.9Z"/>
        <g>
          <path class="cls-5" d="M40.6,57.5v18.9h11.2v-18.9c-5.5-1.7-11.2,0-11.2,0Z"/>
          <path class="cls-5" d="M24.2,63.7v9.2h6.6v-9.2c-3.2-.9-6.6,0-6.6,0Z"/>
          <path class="cls-5" d="M61.6,63.7v9.2h6.6v-9.2c-3.2-.9-6.6,0-6.6,0Z"/>
          <path class="cls-5" d="M77.8,55.1h-19.5v-1.6h19.4c0-1.1-.1-2.3-.3-3.4,0-.6-.2-1.3-.2-1.9h-6.2v-6.7h-11.3v-1.6h1.6v-1.6h-29.8v1.6h1.6v1.6h-12.1v6.7h-6.2c0,.6-.2,1.3-.2,1.9-.1,1.1-.2,2.2-.3,3.4h19.8v1.6H14.2c0,.4,0,.9,0,1.3s0,.2,0,.3h19.9v16.1h1.6v-19.4h1.6v19.4h1.6v-22.6h2.4c0-.1,3.6-2,3.6-2h.2c0-.1.1-.4.1-.4,0,0,.4-1,1-1s1,1,1,1v.3c.1,0,.3.1.3.1l3.6,1.9h.2c0,.1,1.1.1,1.1.1h1v1.6h0v1.6h0v19.4h1.6v-19.4h1.6v19.4h1.6v-16.1h19.5c0-.1,0-.2,0-.3,0-.4,0-.9,0-1.3ZM58.3,50.2h1.8v-1.6h-1.8v-5.4h11.1v8.7h-11.1v-1.6ZM22.6,51.9v-8.7h11.4v5.4h-1.8v1.5h0c0,.1,1.8.1,1.8.1v1.6h-11.4ZM37.3,51.9h-1.6v-1.6h1.6v1.6ZM37.3,48.6h-1.6v-5.4h1.6v5.4ZM53.4,48.6h0s-1.9,0-1.9,0l-3.3-1.8c0-.2-.2-.4-.4-.6-.5-.7-1-1-1.6-1s-1.2.3-1.6,1c-.2.2-.3.5-.4.6l-3.3,1.8h-1.9v-5.4h14.5v5.4ZM56.7,51.9h-1.6v-1.6h1.6v1.6ZM56.7,48.6h-1.6v-5.4h1.6v5.4ZM58.1,41.6h-23.4v-1.6h23.4v1.6Z"/>
          <path class="cls-5" d="M48,52.7c0-1.3-.8-2.4-1.8-2.4s-1.8,1.1-1.8,2.4.8,2.4,1.8,2.4,1.8-1.1,1.8-2.4Z"/>
        </g>
        <path class="cls-5" d="M84.8,73.3l-3.3-1.4c-.3-.1-.7,0-.8.4-1.2,4.2-2.8,8.1-4.8,11.7s0,.5,0,.7l2.6,2.6c.3.3.7.2.9-.1,2.4-4.1,4.3-8.5,5.6-13.2s0-.6-.3-.7Z"/>
        <path class="cls-5" d="M82.8,57.7c-.1,4-.6,7.8-1.4,11.5s0,.6.3.7l3.3,1.4c.3.1.7,0,.8-.4,1-4.2,1.5-8.6,1.6-13.1s-.3-.6-.6-.6h-3.6c-.3,0-.6.3-.6.6Z"/>
        <path class="cls-5" d="M81.4,43.1c.8,3.7,1.3,7.5,1.4,11.5,0,.3.3.6.6.6h3.6c.3,0,.6-.3.6-.6-.1-4.5-.7-8.9-1.6-13.1s-.5-.6-.8-.4l-3.3,1.4c-.3.1-.4.4-.3.7Z"/>
        <path class="cls-5" d="M74.2,86.7c-2.7,4.1-6,7.7-9.6,10.4s-.3.4-.2.7l1.4,3.4c.1.4.6.5.9.3,3.3-2.4,6.4-5.4,9.1-8.9.7-.9,1.3-1.8,1.9-2.7s.1-.6,0-.8l-2.6-2.6c-.3-.3-.7-.2-.9,0Z"/>
        <path class="cls-5" d="M7.2,73.3l3.3-1.4c.3-.1.7,0,.8.4,1.2,4.2,2.8,8.1,4.8,11.7s0,.5,0,.7l-2.6,2.6c-.3.3-.7.2-.9-.1-2.4-4.1-4.3-8.5-5.6-13.2s0-.6.3-.7Z"/>
        <path class="cls-5" d="M9.2,57.7c.1,4,.6,7.8,1.4,11.5s0,.6-.3.7l-3.3,1.4c-.3.1-.7,0-.8-.4-1-4.2-1.5-8.6-1.6-13.1,0-.3.3-.6.6-.6h3.6c.3,0,.6.3.6.6Z"/>
        <path class="cls-5" d="M10.6,43.1c-.8,3.7-1.3,7.5-1.4,11.5,0,.3-.3.6-.6.6h-3.6c-.3,0-.6-.3-.6-.6.1-4.5.7-8.9,1.6-13.1s.5-.6.8-.4l3.3,1.4c.3.1.4.4.3.7Z"/>
        <path class="cls-5" d="M17.8,86.7c2.7,4.1,6,7.7,9.6,10.4s.3.4.2.7l-1.4,3.4c-.1.4-.6.5-.9.3-3.3-2.4-6.4-5.4-9.1-8.9-.7-.9-1.3-1.8-1.9-2.7s-.1-.6,0-.8l2.6-2.6c.3-.3.7-.2.9,0Z"/>
        <g>
          <g>
            <path class="cls-5" d="M7.2,39l3.3,1.4c.3.1.7,0,.8-.4,1.2-4.2,2.8-8.1,4.8-11.7s0-.5,0-.7l-2.6-2.6c-.3-.3-.7-.2-.9.1-2.4,4.1-4.3,8.5-5.6,13.2,0,.3,0,.6.3.7Z"/>
            <path class="cls-5" d="M17.8,25.5c2.7-4.1,6-7.7,9.6-10.4s.3-.4.2-.7l-1.4-3.4c-.1-.4-.6-.5-.9-.3-3.3,2.4-6.4,5.4-9.1,8.9-.7.9-1.3,1.8-1.9,2.7s-.1.6,0,.8l2.6,2.6c.3.3.7.2.9,0Z"/>
          </g>
          <g>
            <path class="cls-5" d="M84.8,39l-3.3,1.4c-.3.1-.7,0-.8-.4-1.2-4.2-2.8-8.1-4.8-11.7-.1-.2,0-.5,0-.7l2.6-2.6c.3-.3.7-.2.9.1,2.4,4.1,4.3,8.5,5.6,13.2,0,.3,0,.6-.3.7Z"/>
            <path class="cls-5" d="M74.2,25.5c-2.7-4.1-6-7.7-9.6-10.4-.2-.2-.3-.4-.2-.7l1.4-3.4c.1-.4.6-.5.9-.3,3.3,2.4,6.4,5.4,9.1,8.9.7.9,1.3,1.8,1.9,2.7s.1.6,0,.8l-2.6,2.6c-.3.3-.7.2-.9,0Z"/>
          </g>
        </g>
        <path class="cls-5" d="M46,111.8c-2.3-.9-4.6-1.8-6.9-2.8,0,0,0,0,0,0,2.3,1,4.6,1.9,6.9,2.8,0,0,0,0,0,0Z"/>
        <path class="cls-5" d="M55.7,107.7c2.8-1.3,5.5-2.7,8.1-4.3.2-.1.3-.4.2-.7h0s-1.4-3.6-1.4-3.6c0,0-.1-.2-.2-.2-.1,0-.2,0-.3,0-4.2,2.4-8.7,4.6-13.2,6.5,2.3.8,4.5,1.6,6.9,2.2Z"/>
        <path class="cls-4" d="M56.1,17.3c0-7.2-4.5-13-10.1-13s-10.1,5.8-10.1,13,3.5,11.6,8.1,12.8l1.3,1.3c.4.4,1,.4,1.4,0l1.3-1.3c4.6-1.2,8.1-6.5,8.1-12.8Z"/>
        <path class="cls-3" d="M32.9,17.4c3.3-.1,6.6-1.5,9.1-4s3.9-5.8,4-9.1c-3.3.1-6.6,1.5-9.1,4s-3.9,5.8-4,9.1Z"/>
        <path class="cls-3" d="M59.2,17.4c-.1-3.3-1.5-6.6-4-9.1s-5.8-3.9-9.1-4c.1,3.3,1.5,6.6,4,9.1,2.5,2.5,5.8,3.9,9.1,4Z"/>
        <path class="cls-5" d="M59.9,17.4c-.2-3.6-1.7-7.1-4.2-9.6-2.3-2.3-5.3-3.8-8.5-4.1-.4,0-.7,0-1.1,0s-.7,0-1.1,0c-3.2.4-6.2,1.8-8.6,4.2-2.6,2.6-4.1,6-4.2,9.6v.9s.8,0,.8,0c.7,0,1.5-.1,2.2-.3.2,6.2,3.7,11.5,8.5,12.8l1.2,1.2c.3.3.8.5,1.3.5s.9-.2,1.3-.5l1.2-1.2c4.8-1.4,8.2-6.7,8.5-12.8.7.1,1.4.2,2.2.3h.9s0-.8,0-.8ZM33.8,16.6c.3-2.9,1.6-5.6,3.7-7.7,2.1-2.1,4.8-3.4,7.7-3.7-.3,2.9-1.6,5.6-3.7,7.7-2.1,2.1-4.8,3.4-7.7,3.7ZM47.8,29.3h-.2c0,0-1.5,1.5-1.5,1.5,0,0-.2,0-.3,0l-1.5-1.5h-.2c-4.3-1.2-7.4-6.1-7.5-11.8,2.2-.7,4.2-1.9,5.9-3.6,1.5-1.5,2.7-3.4,3.4-5.4.7,2,1.9,3.8,3.4,5.4,1.7,1.7,3.7,2.9,5.9,3.6,0,5.7-3.2,10.7-7.5,11.8ZM50.5,12.8c-2.1-2.1-3.4-4.8-3.7-7.7,2.9.3,5.6,1.6,7.7,3.7,2.1,2.1,3.4,4.8,3.7,7.7-2.9-.3-5.6-1.6-7.7-3.7Z"/>
        <path class="cls-5" d="M63.9,112.4c0-.3,0-.6-.4-.6-11.7-2.4-23.3-6.9-33.7-12.8-.1,0-.2,0-.3,0-.1,0-.2.1-.2.2l-1.4,3.5h0c0,.3,0,.6.2.7,10.6,6.1,22,10.5,34.1,13.1.3,0,.5,0,.6-.3l1.1-3.7Z"/>
        <path class="cls-5" d="M29.8,116.5c4.5-1,8.9-2.2,13.2-3.6-2.3-.9-4.6-1.9-6.9-3-2.6.7-5.2,1.4-7.8,1.9s-.4.3-.3.6l1.1,3.7c0,.3.4.5.7.4Z"/>
        <path class="cls-5" d="M77.8,56.7h0v-1.6h0c0,.4,0,.9,0,1.3s0,.2,0,.3Z"/>
        <rect class="cls-2" x="55.1" y="43.2" width="1.6" height="5.4"/>
        <path class="cls-2" d="M40.8,48.6l3.3-1.8c0-.2.2-.4.4-.6.5-.7,1-1,1.6-1s1.2.3,1.6,1c.2.2.3.5.4.6l3.3,1.8h1.9s0,0,0,0v-5.4h-14.5v5.4h1.9Z"/>
        <rect class="cls-2" x="35.7" y="43.2" width="1.6" height="5.4"/>
        <rect class="cls-2" x="34.7" y="39.9" width="23.4" height="1.6"/>
        <path class="cls-5" d="M18.8,78.3c.2.4.4.8.6,1.2h53.4c.2-.4.4-.8.6-1.2H18.8Z"/>
        <path class="cls-5" d="M18.8,78.3h54.5c0-.2.1-.3.2-.5H18.5c0,.2.1.3.2.5Z"/>
        <path class="cls-5" d="M21.1,82.7h49.9c.3-.5.6-1.1.9-1.6H20.1c.3.5.6,1.1.9,1.6Z"/>
        <path class="cls-5" d="M23.2,86h45.6c.4-.5.8-1.1,1.1-1.6H22.1c.4.6.7,1.1,1.1,1.6Z"/>
        <path class="cls-5" d="M25.8,89.2h40.4c.5-.5.9-1.1,1.4-1.6H24.4c.5.6.9,1.1,1.4,1.6Z"/>
        <path class="cls-5" d="M29.2,92.5h33.6c.6-.5,1.2-1.1,1.8-1.6H27.4c.6.6,1.2,1.1,1.8,1.6Z"/>
        <path class="cls-5" d="M33.9,95.7h24.3c.9-.5,1.7-1,2.6-1.6h-29.4c.8.6,1.7,1.1,2.6,1.6Z"/>
        <path class="cls-5" d="M46,99c3,0,5.9-.6,8.7-1.6h-17.4c2.8,1.1,5.7,1.6,8.7,1.6Z"/>
        <g>
          <g>
            <path class="cls-5" d="M110.6,46.6h4.2v3.3c-.5.4-1,.7-1.7.9-.7.3-1.4.4-2.2.4s-1.6-.1-2.2-.4c-.7-.3-1.2-.7-1.7-1.2s-.8-1.1-1.1-1.8c-.3-.7-.4-1.5-.4-2.3s.1-1.5.4-2.2c.3-.7.6-1.3,1.1-1.8.5-.5,1-.9,1.6-1.2.6-.3,1.3-.4,2.1-.4s.9,0,1.3.1c.4,0,.8.2,1.1.3.3.1.6.3.9.5.3.2.6.4.8.6h0c0,0,1.2-1.3,1.2-1.3h0c-.3-.4-.7-.6-1.1-.9-.4-.2-.8-.4-1.2-.6-.4-.2-.9-.3-1.4-.4-.5,0-1-.1-1.6-.1-1.1,0-2,.2-2.9.6-.9.4-1.6.9-2.2,1.6-.6.7-1.1,1.5-1.4,2.3-.3.9-.5,1.8-.5,2.8s.2,2,.5,2.8c.3.9.8,1.7,1.4,2.3.6.7,1.4,1.2,2.3,1.6.9.4,1.9.6,3,.6s2.3-.2,3.2-.6c1-.4,1.8-.9,2.4-1.5h0v-5.7h-6v1.6Z"/>
            <path class="cls-5" d="M131.6,40.4c-.6-.7-1.4-1.2-2.3-1.6-.9-.4-1.9-.6-2.9-.6s-2.1.2-2.9.6c-.9.4-1.7.9-2.3,1.6-.6.7-1.1,1.5-1.5,2.3-.3.9-.5,1.8-.5,2.8s.2,1.9.5,2.8c.3.9.8,1.7,1.5,2.3.6.7,1.4,1.2,2.3,1.6.9.4,1.9.6,2.9.6s2.1-.2,2.9-.6c.9-.4,1.7-.9,2.3-1.6.6-.7,1.1-1.5,1.5-2.3h0c.3-.9.5-1.8.5-2.8s-.2-1.9-.5-2.8c-.3-.9-.8-1.7-1.5-2.3ZM131.3,47.7c-.3.7-.6,1.3-1.1,1.8-.5.5-1,.9-1.7,1.2-.7.3-1.4.4-2.1.4s-1.5-.2-2.1-.4c-.7-.3-1.2-.7-1.7-1.2-.5-.5-.9-1.1-1.1-1.8-.3-.7-.4-1.4-.4-2.2s.1-1.5.4-2.2c.3-.7.6-1.3,1.1-1.8.5-.5,1-.9,1.7-1.2.7-.3,1.4-.4,2.1-.4s1.5.2,2.1.4c.7.3,1.2.7,1.7,1.2.5.5.9,1.1,1.1,1.8.3.7.4,1.4.4,2.2s-.1,1.5-.4,2.2Z"/>
            <path class="cls-5" d="M147.1,46.3c-.3-.3-.6-.5-1-.7-.3-.1-.6-.3-.9-.4.2,0,.4-.2.5-.3.3-.2.5-.4.7-.7.2-.3.4-.6.5-.9.1-.4.2-.8.2-1.3s-.1-1-.3-1.5c-.2-.4-.5-.8-.9-1.1-.4-.3-.9-.5-1.5-.7-.6-.2-1.2-.3-1.9-.3h-6v14.1h6.3c.8,0,1.5,0,2.1-.3.6-.2,1.2-.4,1.6-.8.5-.3.8-.8,1.1-1.2.2-.5.4-1.1.4-1.7s0-.9-.2-1.3c-.2-.4-.4-.7-.7-1ZM138.4,40.1h4.1c1,0,1.7.2,2.2.6.5.4.7.9.7,1.6s-.3,1.4-.8,1.8c-.6.4-1.3.6-2.2.6h-4v-4.6ZM145.3,50.3c-.6.4-1.4.6-2.4.6h-4.5v-4.7h4.3c1.2,0,2.1.2,2.7.6.6.4.9,1,.9,1.7s-.3,1.3-.9,1.8Z"/>
            <rect class="cls-5" x="151" y="38.4" width="1.8" height="14.1"/>
            <polygon class="cls-5" points="158.4 46.3 166 46.3 166 44.6 158.4 44.6 158.4 40.1 166.9 40.1 166.9 38.4 156.6 38.4 156.6 52.6 167 52.6 167 50.9 158.4 50.9 158.4 46.3"/>
            <path class="cls-5" d="M178.5,46.4c.5-.2.9-.5,1.2-.9.3-.3.6-.8.8-1.2.2-.5.3-1,.3-1.6s-.1-1.2-.4-1.7c-.2-.5-.6-1-1-1.4-.4-.4-1-.7-1.6-.9-.6-.2-1.3-.3-2.1-.3h-6.1v14.1h1.8v-5.4h3.8l4,5.4h2.2l-4.3-5.7c.5,0,.9-.2,1.4-.5ZM175.6,45.6h-4.2v-5.4h4.2c1.1,0,2,.2,2.6.7.6.5.9,1.1.9,2s0,.8-.3,1.2c-.2.3-.4.6-.7.9-.3.2-.7.4-1.1.5-.4.1-.9.2-1.4.2Z"/>
            <polygon class="cls-5" points="194.1 49.4 185.6 38.4 183.9 38.4 183.9 52.6 185.7 52.6 185.7 41.4 194.5 52.6 195.9 52.6 195.9 38.4 194.1 38.4 194.1 49.4"/>
            <path class="cls-5" d="M211.4,40.4c-.6-.7-1.4-1.2-2.3-1.6-.9-.4-1.9-.6-2.9-.6s-2.1.2-2.9.6c-.9.4-1.7.9-2.3,1.6-.6.7-1.1,1.5-1.5,2.3-.3.9-.5,1.8-.5,2.8s.2,1.9.5,2.8c.3.9.8,1.7,1.5,2.3.6.7,1.4,1.2,2.3,1.6.9.4,1.9.6,2.9.6s2.1-.2,2.9-.6c.9-.4,1.7-.9,2.3-1.6.6-.7,1.1-1.5,1.5-2.3h0c.3-.9.5-1.8.5-2.8s-.2-1.9-.5-2.8c-.3-.9-.8-1.7-1.5-2.3ZM211.1,47.7c-.3.7-.6,1.3-1.1,1.8-.5.5-1,.9-1.7,1.2-.7.3-1.4.4-2.1.4s-1.5-.2-2.1-.4c-.7-.3-1.2-.7-1.7-1.2-.5-.5-.9-1.1-1.1-1.8-.3-.7-.4-1.4-.4-2.2s.1-1.5.4-2.2c.3-.7.6-1.3,1.1-1.8.5-.5,1-.9,1.7-1.2.7-.3,1.4-.4,2.1-.4s1.5.2,2.1.4c.7.3,1.2.7,1.7,1.2.5.5.9,1.1,1.1,1.8.3.7.4,1.4.4,2.2s-.1,1.5-.4,2.2Z"/>
            <path class="cls-5" d="M232.8,40.5c-.7-.6-1.5-1.1-2.4-1.5-.9-.4-1.9-.5-3-.5h-4.9v14.1h4.9c1.1,0,2.1-.2,3-.5.9-.4,1.7-.9,2.4-1.5.7-.6,1.2-1.4,1.5-2.3.4-.9.5-1.8.5-2.8s-.2-1.9-.5-2.8-.9-1.6-1.5-2.2ZM232.6,47.7c-.3.6-.6,1.2-1.1,1.7s-1.1.9-1.8,1.1c-.7.3-1.5.4-2.3.4h-3.1v-10.8h3.1c.9,0,1.6.1,2.3.4.7.3,1.3.7,1.8,1.1.5.5.9,1.1,1.1,1.7.3.7.4,1.4.4,2.1s-.1,1.5-.4,2.1Z"/>
            <polygon class="cls-5" points="239.6 50.9 239.6 46.3 247.2 46.3 247.2 44.6 239.6 44.6 239.6 40.1 248.1 40.1 248.1 38.4 237.8 38.4 237.8 52.6 248.2 52.6 248.2 50.9 239.6 50.9"/>
          </g>
          <g>
            <path class="cls-5" d="M113.9,63.8v15.5h-4.3v-15.5h-5.9v-4h16.1v4h-5.9Z"/>
            <path class="cls-5" d="M131,79.6c-5.2,0-8.4-2.9-8.4-8.7v-11.1h4.3v11c0,3.2,1.6,4.8,4.2,4.8s4.2-1.6,4.2-4.7v-11.2h4.3v11c0,5.9-3.3,8.8-8.5,8.8Z"/>
            <path class="cls-5" d="M153,79.7c-5.7,0-10-4.4-10-10h0c0-5.6,4.2-10.1,10.2-10.1s5.9,1.2,7.7,3l-2.7,3.1c-1.5-1.4-3-2.2-5-2.2-3.3,0-5.6,2.7-5.6,6.1h0c0,3.4,2.3,6.2,5.6,6.2s3.6-.9,5.1-2.3l2.7,2.8c-2,2.1-4.2,3.5-8,3.5Z"/>
            <path class="cls-5" d="M172.2,79.6c-5.2,0-8.4-2.9-8.4-8.7v-11.1h4.3v11c0,3.2,1.6,4.8,4.2,4.8s4.2-1.6,4.2-4.7v-11.2h4.3v11c0,5.9-3.3,8.8-8.5,8.8Z"/>
            <path class="cls-5" d="M200.5,79.3v-12.7l-5.5,8.3h-.1l-5.4-8.2v12.6h-4.2v-19.5h4.6l5.1,8.2,5.1-8.2h4.6v19.5h-4.3Z"/>
            <path class="cls-5" d="M223.7,79.3l-1.8-4.4h-8.2l-1.8,4.4h-4.4l8.3-19.6h4l8.3,19.6h-4.5ZM217.8,64.9l-2.6,6.3h5.2l-2.6-6.3ZM216,58.3l3.1-4.9,3.6,1.6-3.6,3.3h-3.2Z"/>
            <path class="cls-5" d="M244.6,79.3l-9.4-12.4v12.4h-4.2v-19.5h4l9.1,12v-12h4.2v19.5h-3.6Z"/>
          </g>
        </g>
      </g>
    </g>
  </g>
</svg>