<?xml version="1.0" encoding="UTF-8"?>
<!DOCTYPE svg PUBLIC "-//W3C//DTD SVG 1.1//EN" "http://www.w3.org/Graphics/SVG/1.1/DTD/svg11.dtd">
<!-- Creator: CorelDRAW 2019 (64-Bit) -->
<svg xmlns="http://www.w3.org/2000/svg" xml:space="preserve" version="1.1" style="shape-rendering:geometricPrecision; text-rendering:geometricPrecision; image-rendering:optimizeQuality; fill-rule:evenodd; clip-rule:evenodd"
viewBox="0 0 8403.55 2641.18"
 xmlns:xlink="http://www.w3.org/1999/xlink">
 <defs>
  <style type="text/css">
   <![CDATA[
    .fil1 {fill:#670064}
    .fil0 {fill:#670064;fill-rule:nonzero}
   ]]>
  </style>
 </defs>
 <g id="Layer_x0020_1">
  <metadata id="CorelCorpID_0Corel-Layer"/>
  <path class="fil0" d="M3414.67 1858.27c385.55,0 611.5,-216.99 611.5,-593.58l0 -690.41 -416.04 0 0 677.86c0,191.88 -73.52,263.61 -191.88,263.61 -118.35,0 -191.88,-71.73 -191.88,-263.61l0 -677.86 -423.21 0 0 690.41c0,376.59 225.95,593.58 611.51,593.58zm1273.22 0c389.14,0 584.61,-193.68 584.61,-423.21 0,-462.97 -694,-337.44 -694,-487.77 0,-43.04 39.45,-78.91 163.19,-78.91 109.39,0 225.95,30.49 349.69,93.25l127.32 -306.65c-130.91,-73.52 -304.86,-109.39 -473.42,-109.39 -389.14,0 -584.61,190.09 -584.61,423.21 0,468.05 694,340.43 694,498.53 0,43.04 -43.04,68.15 -163.19,68.15 -138.08,0 -295.89,-44.83 -414.25,-114.77l-136.29 308.44c125.53,77.11 337.14,129.12 546.95,129.12zm1314.47 -1283.99l-604.33 0 0 1255.3 423.21 0 0 -308.45 181.12 0c349.69,0 572.06,-182.91 572.06,-473.42 0,-290.51 -222.37,-473.43 -572.06,-473.43zm-26.9 620.48l-154.22 0 0 -294.1 154.22 0c116.56,0 172.16,55.59 172.16,147.05 0,91.46 -55.6,147.05 -172.16,147.05zm715.52 268.99l537.98 0 0 -304.86 -537.98 0 0 304.86zm921.74 365.83l423.21 0 0 -927.13 367.62 0 0 -328.17 -1158.45 0 0 328.17 367.62 0 0 927.13z"/>
  <path class="fil0" d="M144.08 2641.18c-34.99,0 -62.15,-10.22 -81.49,-30.65 -19.33,-20.43 -29,-50.28 -29,-89.54l0 -160.39 20.13 0 0 159.59c0,34.23 7.75,59.83 23.28,76.81 15.52,16.98 38.01,25.47 67.47,25.47 29.2,0 51.56,-8.49 67.08,-25.47 15.52,-16.98 23.29,-42.58 23.29,-76.81l0 -159.59 20.12 0 0 160.39c0,39.26 -9.73,69.11 -29.2,89.54 -19.47,20.43 -46.69,30.65 -81.68,30.65zm429.72 -280.58l0 278.59 -16.58 0 -188.22 -241.98 0 241.98 -20.13 0 0 -278.59 16.97 0 187.83 241.97 0 -241.97 20.13 0zm96.28 0l20.12 0 0 278.59 -20.12 0 0 -278.59zm333.43 0l-123.11 278.59 -20.13 0 -123.11 -278.59 22.1 0 111.67 252.32 111.67 -252.32 20.91 0zm235.18 260.28l0 18.31 -190.59 0 0 -278.59 184.67 0 0 18.31 -164.54 0 0 109.84 147.18 0 0 17.91 -147.18 0 0 114.22 170.46 0zm265.17 18.31l-65.9 -93.13c-9.73,1.33 -18.67,1.99 -26.83,1.99l-78.92 0 0 91.14 -20.12 0 0 -278.59 99.04 0c34.73,0 61.95,8.29 81.68,24.87 19.73,16.59 29.6,39.6 29.6,69.05 0,22.02 -5.59,40.53 -16.77,55.52 -11.18,14.99 -27.16,25.54 -47.95,31.64l69.06 97.51 -22.89 0zm-92.73 -109.05c29.46,0 51.96,-6.57 67.48,-19.7 15.52,-13.13 23.28,-31.77 23.28,-55.92 0,-24.14 -7.76,-42.78 -23.28,-55.91 -15.52,-13.14 -38.02,-19.7 -67.48,-19.7l-78.92 0 0 151.23 78.92 0zm257.67 111.04c-20.25,0 -39.52,-3.52 -57.81,-10.55 -18.28,-7.03 -32.55,-16.12 -42.81,-27.26l9.08 -15.12c9.73,10.34 22.82,18.77 39.26,25.27 16.44,6.5 33.74,9.75 51.89,9.75 26.31,0 46.17,-5.04 59.58,-15.13 13.42,-10.08 20.13,-23.21 20.13,-39.4 0,-12.47 -3.55,-22.42 -10.66,-29.84 -7.1,-7.43 -15.91,-13.14 -26.43,-17.12 -10.53,-3.98 -24.73,-8.09 -42.62,-12.34 -20.26,-5.04 -36.5,-9.94 -48.73,-14.72 -12.24,-4.78 -22.63,-12.14 -31.18,-22.09 -8.55,-9.95 -12.82,-23.28 -12.82,-40 0,-13.53 3.55,-25.93 10.65,-37.21 7.11,-11.27 17.96,-20.23 32.56,-26.86 14.6,-6.63 32.81,-9.95 54.65,-9.95 15.26,0 30.25,2.25 44.98,6.76 14.73,4.51 27.49,10.62 38.28,18.31l-7.5 16.32c-11.05,-7.7 -23.21,-13.53 -36.5,-17.51 -13.28,-3.98 -26.37,-5.97 -39.26,-5.97 -25.52,0 -44.85,5.17 -58.01,15.52 -13.15,10.35 -19.73,23.75 -19.73,40.2 0,12.47 3.55,22.42 10.66,29.84 7.1,7.43 15.91,13.14 26.44,17.12 10.52,3.98 24.85,8.22 43.01,12.73 20.25,5.04 36.43,9.95 48.53,14.73 12.1,4.77 22.43,12 30.98,21.69 8.55,9.68 12.82,22.75 12.82,39.2 0,13.53 -3.61,25.87 -10.85,37.01 -7.23,11.15 -18.35,20.03 -33.34,26.67 -15,6.63 -33.41,9.95 -55.25,9.95zm167.71 -280.58l20.12 0 0 278.59 -20.12 0 0 -278.59zm116.4 0l109.31 0c28.67,0 54.12,5.97 76.35,17.91 22.23,11.94 39.53,28.45 51.89,49.55 12.37,21.09 18.55,45.04 18.55,71.83 0,26.8 -6.18,50.75 -18.55,71.84 -12.36,21.09 -29.66,37.61 -51.89,49.55 -22.23,11.94 -47.68,17.91 -76.35,17.91l-109.31 0 0 -278.59zm107.73 260.28c25.52,0 48.01,-5.11 67.48,-15.32 19.46,-10.22 34.46,-24.48 44.98,-42.79 10.52,-18.3 15.78,-39.26 15.78,-62.88 0,-23.61 -5.26,-44.57 -15.78,-62.88 -10.52,-18.31 -25.52,-32.57 -44.98,-42.78 -19.47,-10.22 -41.96,-15.32 -67.48,-15.32l-87.6 0 0 241.97 87.6 0zm385.13 -60.1l-160.21 0 -35.12 78.41 -21.7 0 127.06 -278.59 20.12 0 127.06 278.59 -21.7 0 -35.51 -78.41zm-7.5 -17.11l-72.61 -160.78 -72.21 160.78 144.82 0zm114.83 -183.07l109.3 0c28.68,0 54.13,5.97 76.36,17.91 22.22,11.94 39.52,28.45 51.88,49.55 12.37,21.09 18.55,45.04 18.55,71.83 0,26.8 -6.18,50.75 -18.55,71.84 -12.36,21.09 -29.66,37.61 -51.88,49.55 -22.23,11.94 -47.68,17.91 -76.36,17.91l-109.3 0 0 -278.59zm107.72 260.28c25.52,0 48.01,-5.11 67.48,-15.32 19.47,-10.22 34.46,-24.48 44.98,-42.79 10.53,-18.3 15.79,-39.26 15.79,-62.88 0,-23.61 -5.26,-44.57 -15.79,-62.88 -10.52,-18.31 -25.51,-32.57 -44.98,-42.78 -19.47,-10.22 -41.96,-15.32 -67.48,-15.32l-87.6 0 0 241.97 87.6 0zm319.63 -260.28l109.3 0c28.67,0 54.13,5.97 76.35,17.91 22.23,11.94 39.53,28.45 51.89,49.55 12.37,21.09 18.55,45.04 18.55,71.83 0,26.8 -6.18,50.75 -18.55,71.84 -12.36,21.09 -29.66,37.61 -51.89,49.55 -22.22,11.94 -47.68,17.91 -76.35,17.91l-109.3 0 0 -278.59zm107.72 260.28c25.52,0 48.01,-5.11 67.48,-15.32 19.46,-10.22 34.46,-24.48 44.98,-42.79 10.52,-18.3 15.79,-39.26 15.79,-62.88 0,-23.61 -5.27,-44.57 -15.79,-62.88 -10.52,-18.31 -25.52,-32.57 -44.98,-42.78 -19.47,-10.22 -41.96,-15.32 -67.48,-15.32l-87.6 0 0 241.97 87.6 0zm408.8 0l0 18.31 -190.59 0 0 -278.59 184.68 0 0 18.31 -164.55 0 0 109.84 147.18 0 0 17.91 -147.18 0 0 114.22 170.46 0zm247.42 20.3c-20.26,0 -39.53,-3.52 -57.81,-10.55 -18.28,-7.03 -32.56,-16.12 -42.82,-27.26l9.08 -15.12c9.73,10.34 22.82,18.77 39.26,25.27 16.44,6.5 33.74,9.75 51.89,9.75 26.31,0 46.17,-5.04 59.59,-15.13 13.41,-10.08 20.12,-23.21 20.12,-39.4 0,-12.47 -3.55,-22.42 -10.65,-29.84 -7.11,-7.43 -15.92,-13.14 -26.44,-17.12 -10.52,-3.98 -24.73,-8.09 -42.62,-12.34 -20.25,-5.04 -36.5,-9.94 -48.73,-14.72 -12.23,-4.78 -22.62,-12.14 -31.17,-22.09 -8.55,-9.95 -12.83,-23.28 -12.83,-40 0,-13.53 3.55,-25.93 10.66,-37.21 7.1,-11.27 17.95,-20.23 32.55,-26.86 14.6,-6.63 32.82,-9.95 54.65,-9.95 15.26,0 30.25,2.25 44.99,6.76 14.73,4.51 27.49,10.62 38.27,18.31l-7.49 16.32c-11.05,-7.7 -23.22,-13.53 -36.51,-17.51 -13.28,-3.98 -26.37,-5.97 -39.26,-5.97 -25.51,0 -44.85,5.17 -58,15.52 -13.16,10.35 -19.73,23.75 -19.73,40.2 0,12.47 3.55,22.42 10.65,29.84 7.1,7.43 15.92,13.14 26.44,17.12 10.52,3.98 24.86,8.22 43.01,12.73 20.26,5.04 36.43,9.95 48.54,14.73 12.1,4.77 22.42,12 30.97,21.69 8.55,9.68 12.83,22.75 12.83,39.2 0,13.53 -3.62,25.87 -10.86,37.01 -7.23,11.15 -18.34,20.03 -33.34,26.67 -14.99,6.63 -33.41,9.95 -55.24,9.95zm338.56 -80.4l-160.2 0 -35.12 78.41 -21.71 0 127.06 -278.59 20.13 0 127.06 278.59 -21.7 0 -35.52 -78.41zm-7.5 -17.11l-72.6 -160.78 -72.21 160.78 144.81 0zm339.75 -183.07l0 278.59 -16.57 0 -188.22 -241.98 0 241.98 -20.13 0 0 -278.59 16.97 0 187.83 241.97 0 -241.97 20.12 0zm296.74 0c34.72,0 61.95,8.29 81.68,24.87 19.73,16.59 29.6,39.6 29.6,69.05 0,29.19 -9.87,52.07 -29.6,68.66 -19.73,16.58 -46.96,24.87 -81.68,24.87l-78.92 0 0 91.14 -20.12 0 0 -278.59 99.04 0zm0 169.14c29.46,0 51.96,-6.5 67.48,-19.5 15.52,-13 23.28,-31.57 23.28,-55.72 0,-24.14 -7.76,-42.78 -23.28,-55.91 -15.52,-13.14 -38.02,-19.7 -67.48,-19.7l-78.92 0 0 150.83 78.92 0zm336.2 31.04l-160.21 0 -35.12 78.41 -21.7 0 127.06 -278.59 20.12 0 127.06 278.59 -21.7 0 -35.51 -78.41zm-7.5 -17.11l-72.61 -160.78 -72.21 160.78 144.82 0zm278.98 -48.15c19.73,3.71 34.79,11.54 45.18,23.48 10.39,11.94 15.59,27.46 15.59,46.56 0,23.61 -8.55,41.79 -25.65,54.52 -17.1,12.74 -42.49,19.11 -76.16,19.11l-123.11 0 0 -278.59 115.22 0c29.99,0 53.34,6.17 70.04,18.51 16.71,12.33 25.06,29.91 25.06,52.73 0,15.92 -4.14,29.32 -12.43,40.19 -8.29,10.88 -19.53,18.71 -33.74,23.49zm-144.03 -117.41l0 111.04 94.31 0c24.2,0 42.82,-4.71 55.84,-14.13 13.02,-9.42 19.53,-23.28 19.53,-41.59 0,-18.04 -6.51,-31.77 -19.53,-41.19 -13.02,-9.42 -31.64,-14.13 -55.84,-14.13l-94.31 0zm102.99 243.57c26.83,0 47.16,-4.71 60.97,-14.13 13.81,-9.42 20.71,-23.95 20.71,-43.58 0,-19.64 -6.9,-34.09 -20.71,-43.38 -13.81,-9.29 -34.14,-13.93 -60.97,-13.93l-102.99 0 0 115.02 102.99 0zm173.62 -261.08l20.13 0 0 260.28 159.02 0 0 18.31 -179.15 0 0 -278.59zm342.52 280.58c-27.1,0 -51.56,-6.17 -73.4,-18.51 -21.83,-12.34 -39,-29.25 -51.49,-50.74 -12.5,-21.49 -18.75,-45.5 -18.75,-72.04 0,-26.53 6.25,-50.54 18.75,-72.03 12.49,-21.49 29.66,-38.41 51.49,-50.74 21.84,-12.34 46.3,-18.51 73.4,-18.51 27.09,0 51.56,6.1 73.39,18.31 21.84,12.2 39,29.05 51.5,50.54 12.49,21.49 18.74,45.64 18.74,72.43 0,26.8 -6.25,50.95 -18.74,72.44 -12.5,21.49 -29.66,38.34 -51.5,50.54 -21.83,12.21 -46.3,18.31 -73.39,18.31zm0 -18.71c23.15,0 44.06,-5.3 62.74,-15.92 18.67,-10.61 33.41,-25.27 44.19,-43.97 10.79,-18.71 16.18,-39.6 16.18,-62.69 0,-23.08 -5.39,-43.97 -16.18,-62.68 -10.78,-18.7 -25.52,-33.36 -44.19,-43.98 -18.68,-10.61 -39.59,-15.92 -62.74,-15.92 -23.15,0 -44.13,5.31 -62.94,15.92 -18.81,10.62 -33.61,25.28 -44.4,43.98 -10.78,18.71 -16.17,39.6 -16.17,62.68 0,23.09 5.39,43.98 16.17,62.69 10.79,18.7 25.59,33.36 44.4,43.97 18.81,10.62 39.79,15.92 62.94,15.92zm291.21 -99.1l101.41 0 0 17.91 -101.41 0 0 -17.91zm328.3 -144.46l-99.44 0 0 -18.31 219.01 0 0 18.31 -99.44 0 0 260.28 -20.13 0 0 -260.28zm271.88 262.27c-34.99,0 -62.15,-10.22 -81.48,-30.65 -19.34,-20.43 -29.01,-50.28 -29.01,-89.54l0 -160.39 20.13 0 0 159.59c0,34.23 7.76,59.83 23.28,76.81 15.52,16.98 38.01,25.47 67.48,25.47 29.2,0 51.56,-8.49 67.08,-25.47 15.52,-16.98 23.28,-42.58 23.28,-76.81l0 -159.59 20.12 0 0 160.39c0,39.26 -9.73,69.11 -29.2,89.54 -19.46,20.43 -46.69,30.65 -81.68,30.65zm321.6 0c-27.1,0 -51.5,-6.1 -73.2,-18.31 -21.7,-12.2 -38.8,-29.05 -51.3,-50.54 -12.49,-21.49 -18.74,-45.64 -18.74,-72.44 0,-26.79 6.25,-50.94 18.74,-72.43 12.5,-21.49 29.6,-38.34 51.3,-50.54 21.7,-12.21 46.1,-18.31 73.2,-18.31 19.99,0 38.41,3.25 55.24,9.75 16.84,6.5 31.18,16.12 43.01,28.85l-12.62 13.14c-22.1,-22.02 -50.38,-33.04 -84.84,-33.04 -23.15,0 -44.2,5.31 -63.14,15.92 -18.94,10.62 -33.8,25.28 -44.59,43.98 -10.78,18.71 -16.18,39.6 -16.18,62.68 0,23.09 5.4,43.98 16.18,62.69 10.79,18.7 25.65,33.36 44.59,43.97 18.94,10.62 39.99,15.92 63.14,15.92 34.2,0 62.48,-11.14 84.84,-33.43l12.62 13.13c-11.83,12.74 -26.24,22.42 -43.21,29.06 -16.96,6.63 -35.31,9.95 -55.04,9.95zm273.46 0c-34.99,0 -62.15,-10.22 -81.49,-30.65 -19.33,-20.43 -29,-50.28 -29,-89.54l0 -160.39 20.12 0 0 159.59c0,34.23 7.76,59.83 23.28,76.81 15.52,16.98 38.02,25.47 67.48,25.47 29.2,0 51.56,-8.49 67.08,-25.47 15.52,-16.98 23.28,-42.58 23.28,-76.81l0 -159.59 20.13 0 0 160.39c0,39.26 -9.74,69.11 -29.2,89.54 -19.47,20.43 -46.7,30.65 -81.68,30.65zm466.02 -1.99l-0.4 -238.39 -115.62 201.37 -9.86 0 -115.62 -200.58 0 237.6 -19.73 0 0 -278.59 16.97 0 123.51 215.31 123.51 -215.31 16.57 0 0.4 278.59 -19.73 0zm286.87 -78.41l-160.21 0 -35.12 78.41 -21.7 0 127.06 -278.59 20.12 0 127.07 278.59 -21.71 0 -35.51 -78.41zm-7.5 -17.11l-72.61 -160.78 -72.21 160.78 144.82 0zm-39.85 -252.72l28.41 0 -61.95 46.96 -21.31 0 54.85 -46.96zm379.6 69.65l0 278.59 -16.57 0 -188.23 -241.98 0 241.98 -20.12 0 0 -278.59 16.97 0 187.83 241.97 0 -241.97 20.12 0z"/>
 </g>
 <g id="Layer_x0020_1_0">
  <metadata id="CorelCorpID_1Corel-Layer"/>
  <path class="fil1" d="M481.37 1188.87c17.42,-27.61 20.85,-35.95 33.25,-65.15 8.58,-15.46 13.62,-20.86 0,-36.45 -48.84,-61.46 -27.97,-126.99 -15.83,-171.77 3.43,-3.2 8.71,-12.03 24.41,-6.63 107.25,59.88 185.41,101.1 287.75,154.6 17.18,6.87 29.32,20.49 44.78,27.49 17.42,8.59 12.39,17.3 8.6,20.73 -3.32,12.03 -17.19,23.93 -20.62,36.08 -12.27,16.93 -24.3,37.67 -24.3,41.1 -3.19,5.28 -8.46,8.84 3.56,17.31l74.36 44.66c8.84,3.44 15.59,-4.91 15.59,-8.47 38.4,-62.08 78.28,-113.49 111.05,-178.9 8.58,-12.27 5.26,-29.33 -12.16,-32.52l-258.28 -130.68c-98.79,-50.18 -272.16,-139.51 -279.04,-142.82 -8.83,-8.47 -29.69,-12.15 -41.34,3.31 -24.67,53.38 -53.87,89.33 -57.43,192.64 -12.03,77.55 0,163.57 81.35,240.62 5.4,3.69 21.11,3.69 24.3,-5.15l0 0z"/>
  <path class="fil1" d="M634.13 1046.05c32.64,12.14 57.06,20.73 83.07,32.89 3.44,5.02 12.15,17.29 6.87,23.92 -15.46,49.94 -102.08,187.37 -105.64,213.14 -8.84,48.22 0,110.18 36.31,133.99 3.68,3.43 17.43,3.43 24.18,-8.59 24.42,-47.85 12.27,-11.79 33,-60.13 0,-5.15 17.43,-20.49 33.01,-8.59 17.42,8.59 50.31,24.43 62.22,32.76 8.95,8.72 8.95,20.74 3.8,32.77 -36.44,80.86 -81.6,133.99 -81.6,137.3 -5.27,8.72 -38.16,25.65 -53.62,17.18 -50.31,-17.18 -66.14,-24.05 -135.46,-101.35 -62.09,-85.9 -41.48,-180.5 -29.58,-237.07 0,-3.56 78.17,-154.72 95.46,-196.2 3.44,-6.75 12.28,-15.09 27.98,-12.02l0 0z"/>
  <path class="fil1" d="M720.64 1290.23l29.69 -56.69c3.32,-6.87 15.58,-11.79 24.17,-3.56l102.09 53.5c8.72,3.44 8.72,15.58 3.31,24.05l-27.48 56.69c-8.72,8.47 -17.42,11.9 -24.42,8.47l-103.93 -56.69c-6.87,-5.03 -6.87,-16.94 -3.43,-25.77l0 0 0 0z"/>
  <path class="fil1" d="M1620.17 882.98c-15.45,29.32 -20.73,37.79 -32.76,65.52 -8.58,11.78 -12.27,20.25 0,37.91 50.07,59.64 29.45,125.28 17.31,166.51 -5.28,8.34 -8.72,15.34 -25.89,8.34 -105.77,-58.4 -180.26,-97.79 -286.28,-154.36 -17.3,-8.83 -29.19,-17.42 -46.62,-25.89 -15.7,-6.87 -12.02,-15.58 -7,-24.17 3.32,-8.35 15.71,-20.61 20.75,-32.64 12.26,-15.34 24.17,-35.95 24.17,-41.23 3.56,-3.19 8.7,-12.15 0,-15.34l-77.79 -44.78c-8.84,-5.16 -17.31,3.43 -17.31,3.43 -36.32,65.29 -78.04,118.79 -111.04,183.69 -8.72,12.52 -3.44,24.17 12.14,33.01l260.01 130.43c98.9,48.35 270.32,137.56 279.27,142.71 8.35,3.43 27.61,12.02 41.35,-8.59 24.79,-48.1 52.15,-85.77 57.31,-187.25 12.15,-77.3 0,-163.44 -83.07,-240.5 -3.44,-3.56 -19.14,-3.56 -24.54,3.2l-0.01 0 0 0z"/>
  <path class="fil1" d="M1200.9 1604.72c-27.86,-15.47 -36.57,-20.49 -65.9,-32.4 -15.58,-3.56 -24.29,-12.15 -36.56,0 -60.49,48.22 -126.38,32.4 -171.66,16.93 -5.16,-5.02 -17.3,-8.34 -8.47,-20.61 60.74,-106.63 102.09,-183.93 155.96,-290.32 8.71,-12.27 15.58,-27.48 27.73,-44.78 8.71,-15.34 17.42,-6.87 20.86,-6.87 12.02,3.31 25.89,15.7 38.28,24.17 15.34,8.59 32.88,20.61 39.76,24.05 0,0 8.59,3.44 17.3,-3.44l41.35 -77.3c7.11,-8.71 0,-17.3 -4.91,-17.3 -60.62,-35.96 -114.36,-73.99 -180.49,-110.07 -12.03,-3.31 -29.33,0 -36.2,12.28l-128.47 257.55c-53.75,96.56 -140.25,271.42 -143.57,276.7 -8.83,7.23 -12.38,27.72 3.32,39.63 50.18,29.2 91.66,53.25 194.12,58.53 77.91,12.14 164.79,0 242.7,-82.34 3.56,-3.56 3.56,-20.98 -5.15,-24.41z"/>
  <path class="fil1" d="M1057.09 1458.69c11.9,-37.66 20.62,-61.58 32.76,-86 5.16,0 17.42,-11.79 26.14,-8.47 48.34,17.17 183.68,101.47 213.38,106.38 48.22,8.72 110.8,0 134.97,-32.27 3.31,-8.72 3.31,-20.61 -8.71,-29.33 -48.59,-20.73 -15.58,-8.59 -65.89,-32.76 0,0 -15.47,-15.34 -3.56,-32.76 8.96,-15.34 24.42,-47.86 33.01,-56.56 8.83,-12.03 20.98,-12.03 33,-3.44 78.17,36.08 131.67,77.42 140.25,77.42 7,3.32 24.42,36.21 15.84,53.26 -15.84,51.53 -24.42,65.16 -102.35,134.23 -86.74,59.76 -181.96,40.86 -239.27,27.25 -3.3,0 -155.95,-72.03 -197.67,-92.9 -6.87,-3.42 -15.46,-12.14 -11.9,-24.05l0 0z"/>
  <path class="fil1" d="M1304.7 1369.5l-58.77 -29.33c-7,-3.56 -12.02,-17.19 -7,-24.17l57.18 -102.95c3.56,-6.87 15.96,-6.87 24.3,-3.56l57.18 32.88c8.59,3.44 12.15,12.03 5.28,20.5l-53.5 101.35c-5.4,8.47 -17.3,12.02 -24.66,5.28l-0.01 0 0 0z"/>
  <path class="fil1" d="M1053.4 305.29c-410.43,0 -744.19,331.17 -744.19,733.64 0,406.64 333.76,734.62 744.19,734.62 407.14,0 741.02,-327.98 741.02,-734.62 0,-402.47 -333.88,-733.64 -741.02,-733.64l0 0zm0.13 1455.14l0 0c-403.2,0 -727.87,-322.1 -727.87,-721.5 0,-394.98 324.67,-720.27 727.87,-720.27 398.18,0 722.6,325.29 722.6,720.27 0,399.28 -324.42,721.5 -722.6,721.5z"/>
  <path class="fil1" d="M1053.77 93.5c-528.85,0 -959.05,426.51 -959.05,944.94 0,524.31 430.2,946.91 959.05,946.91 524.93,0 955.13,-422.6 955.13,-946.91 0,-518.43 -430.07,-944.94 -955.13,-944.94l0 0zm0 1874.78l0 0c-519.15,0 -937.32,-414.73 -937.32,-929.84 0,-508.61 418.17,-927.51 937.32,-927.51 512.91,0 931.33,418.9 931.33,927.51 0,515.11 -418.42,929.84 -931.33,929.84z"/>
  <path class="fil1" d="M1053.77 0c-580.87,0 -1053.77,468.48 -1053.77,1038.44 0,576.33 472.9,1040.52 1053.77,1040.52 576.84,0 1049.73,-464.18 1049.73,-1040.52 0,-569.96 -472.89,-1038.44 -1049.73,-1038.44l0 0zm0 2010.01l0 0c-542.46,0 -979.91,-433.39 -979.91,-971.57 0,-531.8 437.45,-969.73 979.91,-969.73 536.34,0 973.78,437.93 973.78,969.73 0,538.18 -437.44,971.57 -973.78,971.57z"/>
  <path class="fil1" d="M1760.43 715.97l8.22 18.9 107.61 -48.47 -8.47 -18.89 -107.37 48.46 0 0 0.01 0 0 0zm-1345.7 -147.48c-1.1,5.27 -2.94,10.67 -5.88,15.21 -13.5,19.14 -40.01,10.06 -51.54,2.45l27.86 -39.87 -2.58 -1.96c-15.34,-10.44 -31.29,-8.48 -44.06,9.81 -15.08,21.96 -7.12,38.9 11.42,51.9 27.85,19.52 49.69,10.19 61.6,-7.6 6.74,-9.94 8.58,-15.22 10.3,-24.91l-7.12 -5.03 0 0 0 0 0 0zm-64.29 12.63c-2.94,-2.33 -12.39,-12.02 -5.64,-21.96 6.5,-9.21 17.29,-4.79 21.96,-1.47l-16.32 23.43 0 0 0 0zm1442.63 222.71c7.23,21.96 22.7,32.03 52.15,22.45 29.45,-9.82 35.94,-26.87 28.83,-48.95 -7.24,-21.6 -22.94,-32.03 -52.15,-22.21 -29.57,9.44 -36.2,26.87 -28.83,48.71l0 0 0 0zm35.7 -27.73c17.06,-5.4 33.01,-9.33 37.55,3.81 4.54,13.61 -10.93,19.5 -28.22,25.15 -17.18,5.64 -32.89,9.93 -37.43,-3.56 -4.41,-13.38 11.17,-19.75 28.1,-25.4l0 0 0 0 0 0zm-1380.41 -229.21l-61.35 -53.62 13.86 -15.34 15.21 13.25 0.12 -0.24c-4.17,-11.3 -7.84,-23.2 1.35,-35.47l16.33 13.99c-13.75,15.71 -13.26,25.89 0.74,37.92l27.24 23.92 -13.51 15.58 0 0 0.01 0 0 0.01zm1400.29 316.46l11.9 62.45 18.04 -3.32 -11.9 -62.57 -18.04 3.44 0 0 0 0 0 0zm-1369.49 -462.97c-2.58,1.6 -9.58,4.79 -16.07,10.56 -15.22,14.1 -13.01,28.59 -4.79,37.54 5.4,5.64 10.05,7.73 21.59,6.99 10.93,-0.61 25.89,-6.26 31.66,-0.61 3.32,3.93 2.09,9.58 -3.31,14.48 -7.24,6.38 -17.67,7.24 -22.82,7.48l12.51 13.38c3.31,-1.47 10.92,-5.28 17.92,-11.66 12.26,-11.78 18.52,-26.63 6.37,-39.51 -6.49,-6.87 -12.14,-8.59 -23.8,-7.73 -10.43,0.61 -25.52,6.38 -30.92,0.61 -3.8,-3.92 -0.74,-9.45 2.21,-12.64 6.13,-5.4 14.72,-6.37 21.23,-6.37l-11.78 -12.52 0 0 0 0zm988.5 625.42c-32.52,-12.15 -57.06,-18.9 -81.36,-36.32 -3.31,0 -12.03,-12.15 -8.71,-24.05 17.55,-44.55 104.05,-183.81 107.36,-211.29 8.96,-46.51 0,-106.39 -32.76,-130.68 -8.71,-5.03 -20.86,-5.03 -29.44,6.99 -24.17,49.44 -7.12,13.5 -33.01,61.59 0,0 -15.47,15.58 -32.89,8.97 -15.58,-8.97 -48.46,-26.02 -60.74,-38.05 -8.7,-6.63 -8.7,-15.21 -3.55,-27.48 40,-82.46 81.71,-133.75 81.71,-139.15 3.32,-8.58 36.33,-24.29 53.75,-20.98 48.11,20.98 65.89,29.69 135.22,103.44 62.33,89.21 41.48,181.96 29.2,238.9 0,5.03 -74.48,156.45 -94.97,195.96 -3.56,8.84 -12.52,17.42 -29.81,12.15l0 0 0 0zm-84.79 -244.3c6.87,-8.71 3.31,-20.74 -5.28,-24.05l-102.34 -56.44c-8.71,-5.53 -15.7,0 -24.17,6.62l-29.32 58.53c-3.56,6.63 -3.56,15.34 4.91,18.65l102.57 58.41c8.6,3.56 20.62,3.56 24.18,-8.47l29.45 -53.25 0 0 0 0zm449.33 203.68l1.11 22.09 104.17 -6.87 2.09 28.22 13.5 -0.86 -5.4 -78.78 -13.62 0.86 1.96 28.1 -103.81 7.25 0 0 0 -0.01 0 0zm-1181.5 -611.06l17.79 -10.43 -61.6 -100.62 -17.67 10.81 25.03 40.48 -0.24 0.13c-5.03,-2.83 -12.52,-7.61 -23.68,-0.74 -17.8,11.05 -17.06,28.96 -2.82,52.52 11.89,19.27 27.97,32.02 45.15,21.59 11.66,-7.23 11.66,-19.39 10.8,-24.79l0.37 -0.36 6.87 11.41 0 0 0 0 0 0zm-44.06 -19.63c-6.87,-11.04 -15.21,-27.48 -4.78,-33.99 10.31,-6.38 20.62,9.33 27.36,20.12 5.77,9.45 14.61,25.16 4.54,31.54 -10.42,6.38 -21.59,-8.47 -27.12,-17.67l0 0 0 0zm136.08 -26.62l18.77 -8.23 -22.2 -50.43c-6.63,-14.85 -16.2,-23.56 -39.51,-13.38 -19.76,8.6 -26.87,21.85 -19.64,37.43l20.01 -8.96c-2.09,-5.02 -7.24,-16.81 2.7,-21.1 6,-2.58 10.79,-0.37 15.7,10.55l5.65 12.15c-10.56,5.4 -41.36,20.86 -31.29,43.93 4.91,10.79 17.42,14.23 29.2,9.32 11.77,-5.16 15.46,-16.56 15.83,-21.1l0.24 0 4.54 9.82 0 0 0 0zm-12.88 -28.96c4.54,10.54 3.43,22.08 -5.15,26.13 -5.65,2.46 -10.8,-0.24 -13.38,-6.38 -5.39,-12.51 9.82,-21.72 16.2,-25.15l2.33 5.4 0 0 0 0 0 0zm112.39 -5.65l19.76 -5.64 -32.88 -113.39 -20 5.9 13.49 45.4 -0.24 0c-3.81,-3.92 -10.07,-10.31 -22.95,-6.75 -19.87,6.38 -23.8,23.81 -16.19,49.7 6.37,22.08 18.52,38.64 38.03,32.88 12.89,-3.8 15.83,-15.46 16.81,-21.23l0.25 0.12 3.92 13.01 0 0 0 0 0 0zm-37.54 -30.92c-3.68,-12.02 -7.36,-30.31 4.3,-33.99 11.65,-3.19 17.42,14.48 20.98,26.75 2.94,10.31 7.73,27.97 -3.69,31.53 -11.9,3.32 -18.52,-13.74 -21.59,-24.29l0 0zm208.84 3.44l20.61 -1.48 -7.61 -117.67 -20.73 1.59 3.19 47.13 -0.37 0c-2.82,-4.79 -7.37,-12.27 -20.37,-11.66 -21.22,1.47 -28.96,17.66 -27.12,45.15 1.48,22.83 9.7,41.36 30.19,40.01 13.12,-0.49 18.77,-11.42 21.1,-16.82l0.12 0 0.99 13.75 0 0 0 0 0 0zm-29.94 -38.05c-0.98,-13 -0.61,-31.77 11.66,-32.38 12.02,-0.86 13.86,17.79 14.48,30.06 0.73,11.53 1.47,29.69 -10.31,30.18 -12.76,0.98 -15.09,-17.18 -15.83,-27.86l0 0 0 0zm153.75 28.84c-4.91,1.72 -10.55,2.94 -15.95,2.58 -23.19,-1.72 -29.33,-28.96 -28.59,-42.94l48.96 3.31 0 -3.07c1.22,-18.65 -8.6,-31.29 -31.05,-33.01 -26.75,-1.6 -37.17,14.36 -38.65,36.57 -2.21,34.11 16.81,47.48 38.04,48.83 12.15,0.86 17.18,-0.49 26.62,-3.56l0.62 -8.71 0 0 0 0 0 0zm-43.93 -48.71c0.98,-3.93 4.05,-16.93 16.19,-16.32 11.18,0.86 12.89,12.39 12.52,18.16l-28.71 -1.84 0 0zm240.62 -14.23c-4.29,-2.33 -15.46,-7.98 -27.36,-11.54 -24.54,-7.24 -41.6,-0.25 -46.99,17.92 -10.19,36.07 43.43,51.29 35.94,76.81 -3.31,10.67 -14.84,10.67 -21.96,8.59 -12.63,-3.93 -23.31,-14.36 -30.43,-22.34l-5.89 20c3.8,2.58 15.46,10.19 29.2,14.12 23.93,7.12 45.16,3.56 52.15,-20.86 10.8,-34.97 -44.42,-52.76 -37.79,-74.85 2.09,-7.24 9.57,-10.18 19.02,-7.36 13.01,3.93 25.4,13.86 28.71,17.18l5.4 -17.67 0 0 0 0 0 0zm44.79 143.43l18.89 8.23 22.34 -50.31c6.74,-14.61 6.74,-27.61 -16.69,-37.92 -19.76,-8.83 -33.74,-5.39 -40.74,10.19l20 9.08c2.7,-4.91 7.61,-16.69 17.42,-12.27 6.26,2.7 7.86,7.98 2.95,18.64l-5.64 12.52c-10.55,-4.42 -42.83,-16.81 -53.02,6.02 -4.9,10.67 0.62,22.7 12.52,27.85 11.42,5.39 22.7,0.62 26.26,-2.21l0.13 0.12 -4.42 10.06 0 0 0 0 0 0zm13.01 -28.95c-4.54,10.55 -14,17.55 -23.07,13.86 -5.28,-2.7 -6.5,-8.34 -3.68,-14.6 5.4,-12.02 22.33,-7.11 28.96,-5.03l-2.21 5.77 0 0zm-503.21 163.93c33,20.74 38.16,20.74 69.57,32.88 13.86,8.72 20.86,11.79 38.29,0 57.05,-50.06 126.38,-29.57 167.85,-17.29 8.71,5.15 15.71,14.1 8.71,26.01 -57.18,104.66 -98.77,181.97 -155.83,285.16 -8.71,15.34 -17.43,32.64 -26.01,47.97 -6.99,12.15 -15.59,8.59 -24.42,3.32 -8.59,-3.32 -24.41,-11.78 -32.76,-18.65 -15.71,-8.72 -36.69,-20.61 -40.01,-25.89 -5.39,-3.56 -14.1,-3.56 -17.42,5.28l-45.15 72.14c-3.44,13.99 3.56,17.3 3.56,17.3 66.01,40.99 119.63,77.06 185.41,109.7 12.14,8.84 24.41,3.56 33.12,-11.9l131.91 -252.77c48.35,-101.35 138.53,-273.26 143.81,-281.85 3.31,-8.59 11.9,-27.36 -8.84,-35.83 -48.47,-29.33 -86.62,-56.69 -188.95,-61.85 -77.93,-6.86 -164.67,0 -242.84,82.46 -3.31,3.07 -3.31,20.49 0,23.8l0 0 0 0.01 0 0zm544.55 -108.35l17.43 11.29 17.05 -27.48c6.76,-10.93 22.09,-28.84 34.24,-21.47 6.86,4.17 3.56,11.03 -1.47,19.75l-26.75 43.56 17.66 10.43 29.46 -47.73c8.71,-14.49 9.69,-26.01 -3.2,-33.99 -14.35,-8.72 -27.11,-0.49 -33.37,3.31l-0.37 -0.12 9.69 -15.7 -17.66 -10.68 -42.71 68.83 0 0 0 0 0 0zm-1272.06 529.71l-2.82 22.1 77.3 9.68c18.4,2.46 30.19,6.38 27.98,24.17 -2.21,17.06 -14.72,18.29 -33.01,16.33l-77.06 -9.7 -2.95 21.96 77.19 10.07c20.74,2.7 42.33,0.74 46.75,-37.18 4.91,-37.91 -15.34,-44.79 -35.95,-47.61l-77.43 -9.81 0 0 0 0 0 -0.01zm1416.37 -425.66l16.07 15.84 35.95 -36.82 4.05 3.81c13.25,13.38 35.46,30.92 57.31,8.71 18.89,-19.27 8.82,-36.81 -10.56,-56.2l-19.88 -19.38 -82.94 84.04 0 0 0 0zm89.93 -59.75l3.93 3.93c11.42,11.53 15.1,20 3.56,31.53 -13.12,13.87 -23.43,7.12 -32.76,-1.6l-3.8 -3.92 29.08 -29.94 0 0 0 0 -0.01 0zm-1380.78 460.87l5.9 -19.75 -30.68 -8.47c-12.51,-3.55 -34.12,-13.5 -30.19,-27.48 2.21,-7.61 9.7,-6.5 19.27,-3.68l48.84 13.86 5.77 -20 -53.99 -15.22c-16.57,-4.53 -27.61,-2.45 -31.66,12.52 -4.42,15.83 6.49,26.14 12.02,31.05l-0.13 0.24 -17.42 -5.03 -5.89 19.88 78.16 22.08 0 0 0 0 0 0zm1387.53 -295.1l12.89 15.95 43.19 -33.86c12.52,-10.06 19.02,-21.23 3.31,-41.47 -13.5,-17.19 -27.61,-20.74 -41.23,-9.82l13.62 16.93c4.3,-2.82 14.11,-10.8 20.98,-2.33 4.18,5.15 3.2,10.31 -6.13,17.91l-10.79 8.23c-7.37,-8.72 -30.19,-35.1 -49.58,-19.27 -9.45,7.24 -10.31,20.25 -2.33,30.31 8.09,9.94 20,10.68 24.42,10.06l0.12 0.37 -8.47 6.99 0 0 0 0 0 0zm24.91 -19.63c-9.19,6.99 -20.73,8.83 -26.75,1.22 -3.68,-4.78 -2.09,-10.3 3.31,-14.47 10.44,-8.22 23.44,4.17 28.1,9.44l-4.66 3.81 0 0zm-1379.06 210.92l7.98 -19.14 -75.59 -30.67 -7.73 19.38 75.34 30.44 0 0 0 -0.01zm-92.03 -37.05l7.85 -19.52 -17.42 -6.86 -7.85 19.14 17.42 7.24 0 0zm1592.7 -148.6l-40.87 24.17 0.12 0.5c5.53,0.24 15.72,0.73 22.21,12.39 11.05,18.4 -1.1,34.24 -21.47,45.89 -27.61,16.2 -44.54,9.58 -54.97,-8.1 -17.79,-30.3 0.74,-43.07 18.41,-53.74l66.26 -39.02 10.31 17.91 0 0 0 0 0 0zm-65.53 39.89c-14.11,8.21 -30.19,17.79 -23.56,29.2 6.38,10.43 23.56,3.07 37.67,-5.15 10.43,-6.26 25.04,-17.05 18.65,-27.86 -5.77,-9.69 -22.33,-2.08 -32.76,3.81l0 0zm-1402.38 72.76l-86.01 -10.93 9.94 -18.77 56.81 8.59 0 -0.24 -40.13 -40.62 8.6 -16.07 59.01 62.83 -8.21 15.21 0 0 -0.01 0 0 0zm685.3 -68.71c-13.98,32.87 -26.26,56.56 -38.29,80.86 0,3.43 -12.02,12.02 -24.17,8.58 -48.83,-17.17 -185.65,-97.91 -213.26,-106.5 -45.15,-8.83 -107.61,0 -131.9,37.67 -5.03,3.68 -5.03,15.33 8.83,24.05 48.35,24.05 12.15,11.9 60.5,36.08 0,0 17.42,12.14 8.83,32.87 -8.83,11.91 -24.17,44.55 -36.56,56.82 -8.72,8.1 -20.62,8.1 -29.33,5.03 -81.6,-38.04 -135.22,-82.58 -140.5,-82.58 -6.87,-3.44 -24.05,-32.64 -20.73,-53.25 20.73,-48.1 29.2,-60.25 103.93,-128.84 90.31,-65.41 183.8,-46.5 242.58,-32.4 3.44,3.32 151.05,77.06 195.96,92.28 8.58,3.43 17.3,12.27 14.11,29.33l0 0 0 0 0 0zm-248.11 84.29l53.74 32.64c8.72,5.15 12.03,13.87 8.72,20.49l-57.18 103.32c-5.28,6.87 -12.27,12.02 -26.02,6.87l-52.02 -32.51c-8.59,-3.56 -13.86,-15.59 -8.59,-24.18l57.3 -101.35c3.31,-8.71 17.06,-8.71 24.05,-5.28z"/>
  <path class="fil1" d="M341.48 1328.39c-0.61,-5.28 -2.21,-18.04 -5.89,-29.33 -8.21,-25.77 -24.66,-36.56 -44.66,-30.43 -38.29,12.76 -17.91,69.94 -46.01,79.14 -12.15,3.68 -20.99,-3.55 -24.79,-16.19 -4.66,-14.48 -1.59,-30.93 -0.24,-37.8l-19.15 6.14c-0.12,4.29 0.98,18.89 5.64,32.64 7.98,24.91 24.54,41.47 50.31,33.13 38.54,-12.52 19.03,-70.07 44.92,-78.28 9.19,-3.19 17.91,2.33 21.59,13.37 4.18,13.25 2.46,27.61 1.23,33.01l17.05 -5.4 0 0 0 0zm-83.56 116.44l11.05 -5.64 0 -0.25c-6.02,-0.24 -17.92,-3.19 -24.3,-15.94 -6.26,-12.52 -2.08,-25.89 8.71,-31.66 24.42,-12.65 42.95,20.73 48.84,31.16l7.11 -3.68c8.72,-4.42 22.83,-11.66 17.56,-23.07 -5.53,-10.31 -14.37,-7.85 -24.05,-3.93l-9.33 -17.55c12.64,-5.39 27.36,-6.99 40,18.05 13.25,25.89 0,35.33 -15.95,43.31l-50.8 26.01 -8.84 -16.81 0 0 0 0zm27.98 -13.99l9.45 -4.9c-4.05,-7 -15.59,-25.04 -29.94,-17.68 -7.12,3.56 -10.07,10.32 -7.12,15.72 3.07,6 13.99,13.49 27.61,6.86l0 0 0 0zm-32.27 87.74l10.18 15.82 44.05 -28.46 0.37 0.49c-2.58,4.78 -7.73,14.48 0.49,26.74 12.76,20.13 34.85,17.68 57.3,2.95 21.47,-13.98 34.85,-31.78 20.86,-53.5 -7.72,-12.02 -20.24,-11.53 -26.63,-10.55l-0.12 0 12.4 -8.1 -10.44 -15.82 -108.46 70.43 0 0 0 0 0 0zm81.84 -29.7c12.27,-7.97 30.31,-16.8 38.78,-4.17 8.1,13.01 -7,26.26 -19.14,34.48 -13.38,8.23 -31.91,16.44 -40.01,4.18 -8.95,-13.87 7.24,-26.02 20.37,-34.49l0 0zm17.67 99.64l70.06 -54.98 11.79 15.1 -70.19 54.85 -11.66 -14.98 0 0 0 0.01zm86.63 -68.59l12.39 16.19 14.85 -11.77 -12.51 -15.96 -14.73 11.54 0 0 0 0zm6.75 153.74c-5.9,-2.33 -10.55,-5.4 -14.6,-9.81 -18.41,-19.15 -3.07,-45.04 9.93,-57.55l36.82 38.53c12.51,-11.65 22.45,-29.08 2.57,-50.06 -19.5,-20.37 -39.39,-14.85 -57.3,2.21 -25.89,25.4 -22.58,49.81 -5.4,67.49 7.85,8.09 14.12,11.77 21.84,15.09l6.14 -5.9 0 0zm1.84 -72.88c3.8,-3.31 16.57,-11.78 26.5,-1.23 9.7,10.19 2.09,21.23 -2.82,26.01l-23.68 -24.78 0 0zm17.17 104.42l55.1 -70.18 14.6 11.77 -12.88 16.7 0.49 0c6.38,-3.07 23.43,-11.05 39.02,0.98 12.27,9.68 9.45,24.42 1.6,34.22l-40.13 51.78 -14.84 -11.77 34.23 -44.18c6.87,-8.83 11.78,-17.79 4.17,-23.68 -14.72,-11.53 -36.81,8.22 -43.68,17.19l-22.58 28.83 -15.1 -11.66 0 0 0 0zm135.83 85.4c-2.57,-0.37 -5.63,-1.84 -8.09,-3.56 -10.18,-6.5 -7.98,-12.52 -0.86,-23.56l27.98 -43.31 20.61 13.37 5.16 -8.22 -20.38 -13.5 17.68 -26.74 -22.09 -0.74 -11.54 17.54 -11.77 -7.61 -5.4 8.1 12.02 7.61 -32.15 49.21c-9.45,14.84 -3.68,24.78 11.17,34.36 3.68,2.57 8.1,4.78 11.66,6.25l6 -9.2 0 0 0 0 0 0zm25.28 25.16l40.38 -79.52 16.8 8.96 -40.48 79.27 -16.7 -8.71 0 0zm49.34 -98.9l18.4 9.32 8.47 -16.69 -18.41 -8.96 -8.46 16.33 0 0 0 0zm46.13 141.84l17.67 7.61 21.47 -53.38c6.5,-16.31 10.31,-32.27 -16.56,-43.18 -26.14,-10.56 -36.08,0.36 -41.96,12.51l18.4 7.24c4.66,-9.33 9.69,-16.94 20.73,-12.4 11.54,4.42 5.77,19.52 1.72,28.71l-2.94 7c-11.16,-3.68 -46.75,-16.68 -57.06,8.59 -4.79,11.29 1.1,24.42 14.12,30.07 13.12,5.14 23.92,-0.37 28.59,-4.18l0.37 0.25 -4.55 11.16 0 0 0 0 0 0zm11.77 -28.96c-5.51,14.24 -19.01,15.71 -25.03,13.13 -5.88,-2.21 -8.09,-8.96 -5.14,-16.2 6.12,-15.33 26.5,-8.83 33.98,-6.62l-3.8 9.69 0 0 -0.01 0zm109.46 57.06c-6.5,0.98 -12.15,0.74 -17.42,-0.86 -25.89,-7.36 -25.28,-37.54 -20.37,-54.6l50.92 14.48c4.91,-16.45 5.03,-36.32 -22.45,-44.06 -27.12,-8.21 -41.73,6.63 -48.47,30.19 -9.82,34.85 5.27,54.36 28.95,61.23 10.81,2.94 18.05,2.94 26.39,2.09l2.45 -8.47 0 0 0 0 0 0zm-35.21 -63.56c1.84,-4.66 8.7,-18.41 22.82,-14.48 13.49,4.05 12.14,17.06 10.3,23.68l-33.12 -9.2 0 0zm172.64 95.95l19.01 1.6 7.74 -88.96 -18.9 -1.6 -7.85 88.96 0 0 0 0zm8.96 -110.06l20.36 1.59 1.72 -18.64 -20.24 -1.6 -1.84 18.65 0 0 0 0 0 0zm52.88 113.75l18.9 -0.74 -1.23 -36.69c-0.49,-10.92 3.8,-40.61 22.45,-41.1 9.7,-0.37 11.66,9.68 11.78,20.98l2.09 55.7 19.02 -0.73 -2.09 -65.29c-0.74,-12.63 -7.73,-25.52 -23.68,-25.27 -19.51,0.73 -27.73,18.04 -30.43,24.42l-0.37 -0.12 -0.86 -21.11 -18.89 0.74 3.31 89.21 0 0 0 0 0 0zm120.86 -7.86l19.03 -2.58 -11.3 -79.02 25.03 -3.31 -1.22 -9.94 -25.16 3.81 -1.59 -10.56c-1.35,-9.45 -0.86,-20.73 14.24,-22.82 7.72,-1.1 13.12,0.61 17.42,1.97l-1.97 -12.89c-4.54,-0.49 -11.54,-0.49 -19.01,0.61 -29.82,4.17 -31.17,21.84 -28.96,38.29l0.98 8.21 -15.35 1.84 1.6 9.95 15.34 -1.97 10.92 78.41 0 0 0 0 0 0zm72.77 -11.77l18.53 -4.42 -20.12 -86.63 -18.42 4.05 20.01 87 0 0 0 0zm-25.52 -107.61l19.75 -4.55 -3.93 -18.04 -20.12 4.42 4.29 18.17 0 0 0 0 0.01 0zm86.62 93.37l18.04 -6.26 -12.02 -34.84c-3.32,-10.44 -7.98,-39.89 9.69,-45.78 9.08,-3.3 14.11,5.65 17.67,16.45l17.91 52.76 17.68 -6.26 -20.74 -61.6c-4.29,-12.27 -14.85,-22.7 -29.94,-17.42 -18.66,6.38 -21.23,24.78 -22.09,32.4l-0.25 0.12 -6.87 -20.37 -18.04 6.5 28.96 84.29 0 0 0 0.01zm107.49 -39.39l17.06 -7.85 -37.18 -80.74 -17.42 7.86 37.54 80.73 0 0 0 0zm-47.36 -99.51l18.4 -8.59 -7.72 -17.18 -18.29 8.47 7.61 17.3 0 0zm140.5 43.07l5.03 9.56c-2.82,2.71 -7.24,5.41 -11.17,7.25 -15.83,8.1 -27.37,7.85 -35.22,-7.61l-26.87 -52.28 -12.39 6.51 -4.66 -8.72 12.76 -6.37 -9.45 -18.66 11.53 -18.89 14.73 28.83 21.71 -11.16 4.42 8.83 -21.71 11.05 23.19 45.76c5.89,11.54 10.18,16.69 21.1,11.05 2.45,-1.23 5.28,-2.82 6.99,-5.15l0 0 0.01 0zm77.67 -38.78l15.33 -11.16 -52.52 -72.4 -15.33 11.17 21.59 29.82c6.75,8.96 19.63,35.82 4.42,46.87 -7.61,5.4 -15.1,-1.84 -21.59,-10.8l-32.89 -45.16 -15.1 11.05 38.29 52.88c7.49,10.31 20.61,17.06 33.38,7.85 15.95,-11.41 12.88,-29.93 11.53,-37.05l0.37 -0.37 12.52 17.3 0 0 0 0 0 0zm50.92 -33.61l-61.85 -64.18 13.5 -13.13 14.72 15.34 0.25 -0.12c-3.31,-6.51 -9.07,-23.93 3.19,-35.22 11.54,-11.28 24.17,-6.14 31.54,0.12l0 0c-2.34,-7.36 -8.72,-22.7 3.8,-35.09 13.99,-12.88 27.61,-4.29 37.91,6.75l41.97 43.44 -13.62 13.37 -39.88 -41.72c-7.12,-7.24 -14.85,-13.01 -21.59,-6.75 -11.79,12.02 6,34.98 13.61,43.07l25.77 26.5 -13.74 12.89 -38.65 -39.89c-7.74,-7.84 -15.46,-14.84 -23.07,-7.6 -12.4,12.27 7.49,35.83 13.86,42.7l25.89 26.26 -13.62 13.25 0 0 0.01 0 0 0.01zm173.98 -197.44l10.44 -15.95 -74.97 -48.72 -10.31 16.21 74.84 48.46 0 0 0 0zm-93.12 -59.75l11.04 -17.18 -15.71 -10.19 -10.91 17.18 15.58 10.19 0 0 0 0zm139.88 -39.02l9.69 5.02c-0.74,3.81 -2.95,8.35 -4.78,12.16 -8.22,15.7 -17.67,22.69 -33.01,14.71l-52.52 -26.5 -6.26 12.52 -8.71 -4.29 6.5 -13.01 -18.77 -9.2 -1.47 -22.09 28.71 14.6 11.17 -21.72 8.34 4.54 -10.8 21.6 46.02 23.19c11.28,6.13 17.79,7.73 23.44,-2.95 1.35,-2.7 2.2,-5.76 2.45,-8.58l0 0 0 0zm35.09 -87.73c0.49,6.26 -0.37,12.01 -2.57,17.54 -9.57,24.91 -39.64,21.72 -56.2,15.47l19.14 -49.83c-16.08,-6.13 -36.2,-8.34 -46.5,18.9 -10.19,26.26 3.18,41.96 26.38,50.93 33.61,12.75 54.36,-0.37 63.19,-23.44 4.29,-10.8 4.78,-18.04 4.78,-26.38l-8.22 -3.19 0 0 0 0 0 0zm-66.62 29.57c-4.42,-2.21 -17.42,-10.31 -12.52,-24.3 5.4,-12.76 18.41,-10.18 25.15,-8.1l-12.63 32.4 0 0zm90.43 -59.52l5.02 -18.15 -39.25 -11.42c-22.83,-6.38 -25.77,-18.65 -21.48,-36.32l-18.78 -5.39c-3.31,15.94 5.9,25.4 15.72,34.35l0 0.49 -21.85 -6.25 -5.15 18.03 85.77 24.66 0 0 0 0z"/>
  <g id="_2985188506368">
   <polygon class="fil1" points="565.3,432.16 581.61,419.27 530.94,355.48 514.87,368.11 "/>
   <polygon class="fil1" points="503.82,354.49 520.01,341.48 508.48,326.64 492.29,339.64 "/>
  </g>
 </g>
</svg>
