<svg xmlns="http://www.w3.org/2000/svg" xmlns:xlink="http://www.w3.org/1999/xlink" viewBox="0 0 18.54 18.53"><defs><style>.cls-1{fill:none;}.cls-2{fill:#c4c4c3;}.cls-3{fill:#f1f3f4;}.cls-4{clip-path:url(#clip-path);}.cls-5{clip-path:url(#clip-path-2);}.cls-6{clip-path:url(#clip-path-3);}.cls-7{fill:#eaeaea;}.cls-8{clip-path:url(#clip-path-4);}.cls-9{fill:#d08420;}.cls-10{fill:#b5cdea;}.cls-11{fill:#8a9f38;}.cls-12{fill:#648e3e;}.cls-13{fill:#6c5c22;}.cls-14{fill:#68481c;}.cls-15{fill:#2c4e89;}.cls-16{fill:#3f6eb1;}.cls-17{fill:#2b4c31;}.cls-18{fill:#574936;}.cls-19{fill:#4a2115;}.cls-20{fill:#233d56;}.cls-21{fill:#424f7c;}.cls-22{fill:#a95822;}.cls-23{fill:#951f1d;}.cls-24{fill:#741e19;}.cls-25{fill:#512416;}.cls-26{fill:#474d25;}.cls-27{fill:#811f1d;}.cls-28{fill:#8f8f8f;}</style><clipPath id="clip-path"><rect class="cls-1" x="1104.33" y="-461.89" width="345.6" height="437.78"/></clipPath><clipPath id="clip-path-2"><path class="cls-2" d="M1104.33-228.36V-425.2h345.6v153.1q-28.46-12.81-57.45-24.68A1882.51,1882.51,0,0,1,1104.33-228.36Z"/></clipPath><clipPath id="clip-path-3"><rect class="cls-3" x="1000.66" y="-321.53" width="552.93" height="345.58" transform="translate(1128.39 -1425.87) rotate(90)"/></clipPath><clipPath id="clip-path-4"><path class="cls-1" d="M9.27,0a9.27,9.27,0,1,0,9.27,9.27A9.27,9.27,0,0,0,9.27,0Zm0,14.16a4.89,4.89,0,1,1,4.89-4.89A4.89,4.89,0,0,1,9.27,14.16Z"/></clipPath></defs><g id="Capa_2" data-name="Capa 2"><g class="cls-4"><path class="cls-2" d="M1104.33-228.36V-425.2h345.6v153.1q-28.46-12.81-57.45-24.68A1882.51,1882.51,0,0,1,1104.33-228.36Z"/><g class="cls-5"><rect class="cls-3" x="1000.66" y="-321.53" width="552.93" height="345.58" transform="translate(1128.39 -1425.87) rotate(90)"/><g class="cls-6"><path class="cls-7" d="M-288.42-136.89a157.22,157.22,0,0,1,76.26-88.27C16-343.82,260.65-414.26,515-434.51c245.6-19.56,489.76,8.29,725.69,82.77S1692.53-159.87,1882.38-2.85c196.63,162.64,356.5,360.78,475.16,588.93s189.11,472.81,209.36,727.18c19.55,245.6-8.29,489.76-82.78,725.69s-191.86,451.82-348.89,641.67c-162.64,196.63-360.78,356.5-588.93,475.16a157.79,157.79,0,1,1-145.62-280c376.75-196,654.64-526.87,782.5-931.86s90.33-835.48-105.62-1212.23S1550.66,77.06,1145.7-50.79,310.22-141.13-66.53,54.82A157.79,157.79,0,0,1-279.34-12.36,157.34,157.34,0,0,1-288.42-136.89Z"/></g></g></g><g class="cls-8"><path class="cls-9" d="M8.16,1.42a7.08,7.08,0,0,1,1.11.82,7,7,0,0,1,1.1-.82A6.24,6.24,0,0,1,14.25.64a6.23,6.23,0,0,0-10,0A6.22,6.22,0,0,1,8.16,1.42Z"/><path class="cls-10" d="M10.37,17.11a5.94,5.94,0,0,1-1.1-.82,6,6,0,0,1-1.11.82,6.22,6.22,0,0,1-3.87.78,6.21,6.21,0,0,0,10,0A6.24,6.24,0,0,1,10.37,17.11Z"/><path class="cls-11" d="M3.18,12.78a7,7,0,0,1-1.26-.55,6.17,6.17,0,0,1-2.61-3,6.21,6.21,0,0,0,5,8.62A6.17,6.17,0,0,1,3,14.15,6.76,6.76,0,0,1,3.18,12.78Z"/><path class="cls-12" d="M8.16,17.11a6,6,0,0,0,1.11-.82,6.16,6.16,0,0,1-1.94-3.66,6.28,6.28,0,0,1-4.15.15A6.76,6.76,0,0,0,3,14.15a6.17,6.17,0,0,0,1.26,3.74A6.22,6.22,0,0,0,8.16,17.11Z"/><path class="cls-13" d="M15.35,5.75a6.69,6.69,0,0,1,1.26.55,6.22,6.22,0,0,1,2.62,3,6.22,6.22,0,0,0-5-8.63,6.24,6.24,0,0,1,1.26,3.75A6.1,6.1,0,0,1,15.35,5.75Z"/><path class="cls-14" d="M10.37,1.42a7,7,0,0,0-1.1.82,6.27,6.27,0,0,1,1.94,3.67,6.19,6.19,0,0,1,4.14-.16,6.1,6.1,0,0,0,.16-1.36A6.24,6.24,0,0,0,14.25.64,6.24,6.24,0,0,0,10.37,1.42Z"/><path class="cls-15" d="M16.61,12.23a6.69,6.69,0,0,1-1.26.55,6.12,6.12,0,0,1,.16,1.37,6.24,6.24,0,0,1-1.26,3.74,6.21,6.21,0,0,0,5-8.62A6.2,6.2,0,0,1,16.61,12.23Z"/><path class="cls-16" d="M15.35,12.78a6.25,6.25,0,0,1-4.14-.15,6.27,6.27,0,0,1-1.94,3.66,5.94,5.94,0,0,0,1.1.82,6.24,6.24,0,0,0,3.88.78,6.24,6.24,0,0,0,1.26-3.74A6.12,6.12,0,0,0,15.35,12.78Z"/><path class="cls-17" d="M7.33,12.63a6.16,6.16,0,0,0,1.94,3.66,6.27,6.27,0,0,0,1.94-3.66,6.33,6.33,0,0,1-1.94-1.21A6.45,6.45,0,0,1,7.33,12.63Z"/><path class="cls-18" d="M16.61,6.3a6.69,6.69,0,0,0-1.26-.55,6.24,6.24,0,0,1-2.2,3.52,6.21,6.21,0,0,1,2.2,3.51,6.69,6.69,0,0,0,1.26-.55,6.2,6.2,0,0,0,2.62-3A6.22,6.22,0,0,0,16.61,6.3Z"/><path class="cls-19" d="M11.13,8.19a6.06,6.06,0,0,1,2,1.08,6.24,6.24,0,0,0,2.2-3.52,6.19,6.19,0,0,0-4.14.16A6.26,6.26,0,0,1,11.13,8.19Z"/><path class="cls-20" d="M13.15,9.27a6.22,6.22,0,0,1-2,1.07,6.31,6.31,0,0,1,.08,2.29,6.25,6.25,0,0,0,4.14.15A6.21,6.21,0,0,0,13.15,9.27Z"/><path class="cls-21" d="M10.78,9.27a6.08,6.08,0,0,1,.35,1.07,6.22,6.22,0,0,0,2-1.07,6.06,6.06,0,0,0-2-1.08A6.46,6.46,0,0,1,10.78,9.27Z"/><path class="cls-21" d="M11.13,10.34a5.81,5.81,0,0,1-1.1.23,6.87,6.87,0,0,1-.76.85,6.33,6.33,0,0,0,1.94,1.21A6.31,6.31,0,0,0,11.13,10.34Z"/><path class="cls-21" d="M10.44,10a6.65,6.65,0,0,1-.41.62,5.81,5.81,0,0,0,1.1-.23,6.08,6.08,0,0,0-.35-1.07A7.18,7.18,0,0,1,10.44,10Z"/><path class="cls-22" d="M1.92,6.3a7,7,0,0,1,1.26-.55A6.74,6.74,0,0,1,3,4.39,6.18,6.18,0,0,1,4.29.64a6.22,6.22,0,0,0-5,8.63A6.2,6.2,0,0,1,1.92,6.3Z"/><path class="cls-23" d="M3.18,5.75a6.28,6.28,0,0,1,4.15.15A6.16,6.16,0,0,1,9.27,2.24a7.08,7.08,0,0,0-1.11-.82A6.22,6.22,0,0,0,4.29.64,6.18,6.18,0,0,0,3,4.39,6.74,6.74,0,0,0,3.18,5.75Z"/><path class="cls-24" d="M1.92,12.23a7,7,0,0,0,1.26.55A6.23,6.23,0,0,1,5.39,9.27,6.25,6.25,0,0,1,3.18,5.75a7,7,0,0,0-1.26.55,6.2,6.2,0,0,0-2.61,3A6.17,6.17,0,0,0,1.92,12.23Z"/><path class="cls-25" d="M7.33,5.9a6.28,6.28,0,0,0-4.15-.15A6.25,6.25,0,0,0,5.39,9.27a6,6,0,0,1,2-1.08A6.3,6.3,0,0,1,7.33,5.9Z"/><path class="cls-26" d="M7.4,10.34a6.17,6.17,0,0,1-2-1.07,6.23,6.23,0,0,0-2.21,3.51,6.28,6.28,0,0,0,4.15-.15A6.31,6.31,0,0,1,7.4,10.34Z"/><path class="cls-27" d="M7.76,9.27A6.52,6.52,0,0,1,7.4,8.19a6,6,0,0,0-2,1.08,6.17,6.17,0,0,0,2,1.07A6.12,6.12,0,0,1,7.76,9.27Z"/><path class="cls-24" d="M11.21,5.91A6.27,6.27,0,0,0,9.27,2.24,6.16,6.16,0,0,0,7.33,5.9,6.29,6.29,0,0,1,9.27,7.12,6,6,0,0,1,11.21,5.91Z"/><path class="cls-27" d="M7.4,8.19A5.91,5.91,0,0,1,8.51,8a5.55,5.55,0,0,1,.76-.84A6.29,6.29,0,0,0,7.33,5.9,6.3,6.3,0,0,0,7.4,8.19Z"/><path class="cls-27" d="M8.51,8a5.91,5.91,0,0,0-1.11.23,6.52,6.52,0,0,0,.36,1.08,4.73,4.73,0,0,1,.33-.68A6.9,6.9,0,0,1,8.51,8Z"/><path class="cls-27" d="M8.51,10.57a5.91,5.91,0,0,1-1.11-.23,6.31,6.31,0,0,0-.07,2.29,6.45,6.45,0,0,0,1.94-1.21A6.15,6.15,0,0,1,8.51,10.57Z"/><path class="cls-27" d="M7.76,9.27a6.12,6.12,0,0,0-.36,1.07,5.91,5.91,0,0,0,1.11.23A6.74,6.74,0,0,1,8.09,10,5.3,5.3,0,0,1,7.76,9.27Z"/><path class="cls-27" d="M10,8a6,6,0,0,1,1.1.23,6.26,6.26,0,0,0,.08-2.28A6,6,0,0,0,9.27,7.12,6.13,6.13,0,0,1,10,8Z"/><path class="cls-27" d="M10.78,9.27a6.46,6.46,0,0,0,.35-1.08A6,6,0,0,0,10,8a6.81,6.81,0,0,1,.41.63A6.16,6.16,0,0,1,10.78,9.27Z"/><path class="cls-27" d="M10,8a6.13,6.13,0,0,0-.76-.84A5.55,5.55,0,0,0,8.51,8a6.33,6.33,0,0,1,.76,0A6.47,6.47,0,0,1,10,8Z"/><path class="cls-27" d="M8.51,10.57a6.15,6.15,0,0,0,.76.85,6.87,6.87,0,0,0,.76-.85,4.87,4.87,0,0,1-.76.06A4.77,4.77,0,0,1,8.51,10.57Z"/><path class="cls-27" d="M10.78,9.27a6.16,6.16,0,0,0-.34-.68A6.81,6.81,0,0,0,10,8a6.47,6.47,0,0,0-.76,0,6.33,6.33,0,0,0-.76,0,6.9,6.9,0,0,0-.42.63,4.73,4.73,0,0,0-.33.68,5.3,5.3,0,0,0,.33.68,6.74,6.74,0,0,0,.42.62,4.77,4.77,0,0,0,.76.06,4.87,4.87,0,0,0,.76-.06,6.65,6.65,0,0,0,.41-.62A7.18,7.18,0,0,0,10.78,9.27Z"/></g><path class="cls-28" d="M4.35,9.27A4.92,4.92,0,1,0,9.27,4.35,4.92,4.92,0,0,0,4.35,9.27Zm9.27,0A4.35,4.35,0,1,1,9.27,4.91,4.35,4.35,0,0,1,13.62,9.27Z"/><path class="cls-28" d="M9.27,18.53A9.27,9.27,0,1,0,0,9.26,9.27,9.27,0,0,0,9.27,18.53Zm0-18A8.69,8.69,0,1,1,.58,9.26,8.69,8.69,0,0,1,9.27.58Z"/></g></svg>