<?xml version="1.0" encoding="UTF-8"?>
<svg xmlns="http://www.w3.org/2000/svg" width="231" height="50" viewBox="0 0 231 50" fill="none">
  <path d="M56.6438 37.9995C57.1702 38.1379 57.721 38.216 58.2181 38.4244C59.7076 39.0481 59.7174 40.7333 58.9172 41.6973C58.0242 42.7719 56.8165 43.0487 55.4949 42.8891C54.9637 42.8275 54.4493 42.665 53.9792 42.4104C52.7879 41.7412 52.6363 40.336 53.5702 39.3314C54.4013 38.4423 55.4329 38.0923 56.6438 37.9995Z" fill="#017732"></path>
  <path d="M43.5312 37.1137C43.5181 36.499 43.7483 35.9039 44.1716 35.4577C44.7949 34.823 45.6 34.3974 46.4758 34.2396C47.3516 34.0818 48.2549 34.1996 49.0608 34.5768C49.8447 34.9644 50.0484 35.4659 49.8039 36.3679C49.478 37.5517 48.6631 38.2193 47.5305 38.5449C46.4337 38.8608 45.3369 38.9162 44.3102 38.2828C43.8375 37.9913 43.4741 37.6119 43.5312 37.1137Z" fill="#017732"></path>
  <path d="M61.4107 36.7115C60.8354 36.7115 60.0303 36.5991 59.3556 36.0472C58.4251 35.2835 58.3648 34.3 59.1927 33.4289C60.102 32.4813 61.2624 32.2598 62.4928 32.4047C63.0628 32.475 63.6134 32.657 64.1128 32.9404C65.2536 33.5917 65.309 35.0881 64.2757 35.9153C63.5913 36.4656 62.8008 36.7115 61.4107 36.7115Z" fill="#017732"></path>
  <path d="M38.8132 31.0614C39.0632 31.0813 39.3118 31.1156 39.5579 31.164C40.5732 31.405 41.0247 32.4796 40.451 33.424C39.7274 34.6257 38.5964 35.2558 37.2372 35.4968C36.6394 35.6035 36.0233 35.5281 35.469 35.2803C34.7177 34.9546 34.4912 34.4922 34.6737 33.6992C34.7717 33.2999 34.9505 32.9248 35.1991 32.5972C35.4477 32.2695 35.7609 31.9962 36.1192 31.7941C36.9308 31.3026 37.8642 31.0487 38.8132 31.0614Z" fill="#017732"></path>
  <path d="M51.7237 32.7174C51.2975 32.6485 50.877 32.5483 50.4656 32.4178C49.3248 31.9928 49.0396 30.9653 49.7599 29.99C50.3939 29.1303 51.3098 28.7444 52.3251 28.5392C52.8131 28.4306 53.3196 28.4357 53.8054 28.554C54.2912 28.6723 54.7432 28.9007 55.1265 29.2215C55.6513 29.6399 55.7523 30.0275 55.503 30.6429C55.0402 31.7827 54.1112 32.3396 52.9574 32.5724C52.6038 32.6408 52.2436 32.6571 51.7237 32.7174Z" fill="#017732"></path>
  <path d="M67.2369 31.291C66.5459 31.2487 65.7392 31.1477 65.0335 30.6657C64.0557 30.003 63.9742 28.886 64.895 28.1615C66.1988 27.1422 68.4999 26.9354 70.0384 28.3161C70.8239 29.0212 70.5175 29.8272 69.8281 30.4589C69.1388 31.0907 68.2913 31.3024 67.2369 31.291Z" fill="#017732"></path>
  <path d="M44.5383 25.5823C44.9223 25.623 45.3033 25.6877 45.6791 25.776C46.5738 26.0431 46.9372 26.9158 46.4141 27.6876C46.1006 28.1536 45.6862 28.5431 45.2016 28.8274C44.0315 29.4869 42.7652 29.7099 41.4533 29.2752C40.5113 28.9658 40.2277 28.2754 40.7281 27.4222C41.2561 26.5185 42.1263 26.0708 43.1009 25.8184C43.5758 25.7157 44.0555 25.6369 44.5383 25.5823Z" fill="#017732"></path>
  <path d="M32.1672 30.2375C32.1248 30.7797 31.7418 31.3056 31.2269 31.7371C30.2872 32.5538 29.1045 33.0384 27.8615 33.1163C27.4599 33.1152 27.0626 33.0338 26.693 32.8769C26.3019 32.7304 26.1422 32.2745 26.2351 31.8186C26.372 31.1829 26.7286 30.6156 27.2422 30.2163C28.2618 29.3421 29.5639 28.8666 30.9074 28.8779C31.7435 28.8844 32.1688 29.3159 32.1672 30.2375Z" fill="#017732"></path>
  <path d="M57.4424 27.4304C56.9323 27.2991 56.431 27.136 55.9414 26.9419C54.8479 26.4534 55.0353 25.1296 55.8306 24.6069C57.2598 23.6691 58.8081 23.4672 60.3938 24.1429C61.4531 24.5955 61.5916 25.483 60.7735 26.2841C59.9309 27.1145 58.8455 27.318 57.4424 27.4304Z" fill="#017732"></path>
  <path d="M72.6964 23.2066C73.6092 23.1523 74.5095 23.439 75.2225 24.011C76.0569 24.6737 76.0096 25.61 75.0937 26.1554C74.1778 26.7009 73.1381 26.7498 72.0869 26.5625C71.4253 26.4436 70.7636 26.3003 70.2486 25.8167C69.4598 25.0791 69.5967 24.0484 70.5892 23.6381C71.2411 23.3678 71.9777 23.2767 72.6752 23.1057L72.6964 23.2066Z" fill="#017732"></path>
  <path d="M33.7985 27.2089C33.4459 27.1326 33.0995 27.0303 32.762 26.9028C32.2927 26.696 32.177 26.3264 32.3497 25.8281C32.5697 25.1964 33.0652 24.7991 33.5899 24.4425C34.4802 23.8514 35.5171 23.5183 36.5853 23.4802C36.8931 23.4715 37.2002 23.5156 37.4931 23.6104C38.1059 23.7944 38.3601 24.3106 38.1156 24.9131C38.0037 25.2133 37.8261 25.4847 37.5958 25.7077C36.5642 26.6162 35.3386 27.0803 33.7985 27.2089Z" fill="#017732"></path>
  <path d="M48.699 24.309C48.2877 24.2635 47.8803 24.1884 47.4799 24.0843C46.4125 23.7277 46.2446 22.7589 47.1035 22.0213C47.8711 21.37 48.8033 21.1111 49.7762 21.0443C50.387 20.9941 51.0018 21.0242 51.6047 21.1338C52.62 21.3276 52.8759 22.1108 52.1849 22.8696C51.2658 23.8824 50.0581 24.265 48.699 24.309Z" fill="#017732"></path>
  <path d="M23.1793 27.4825C24.0366 27.4352 24.3707 28.0149 24.0773 28.8763C23.9156 29.3021 23.6494 29.6806 23.3032 29.977C22.417 30.7894 21.3225 31.3401 20.1416 31.5678C19.7983 31.6194 19.4482 31.6022 19.1116 31.5173C18.639 31.405 18.419 31.0288 18.5754 30.5664C18.7156 30.1561 18.8851 29.7116 19.1735 29.4055C20.2227 28.2887 21.6511 27.603 23.1793 27.4825Z" fill="#017732"></path>
  <path d="M64.3751 19.714C64.8396 19.841 65.5616 19.9631 66.2167 20.2399C66.9843 20.5656 67.0772 21.3553 66.4921 21.9529C66.0032 22.4413 65.3872 22.6628 64.7223 22.7393C63.7444 22.8533 62.7666 22.9022 61.8295 22.5374C61.7662 22.5147 61.7042 22.4886 61.6437 22.4593C61.2168 22.2313 60.8713 21.9008 60.8468 21.4139C60.824 20.9596 61.1842 20.6763 61.5427 20.4369C62.3266 19.9403 63.2213 19.828 64.3751 19.714Z" fill="#017732"></path>
  <path d="M40.042 22.1401C39.6117 22.0129 39.189 21.8618 38.7757 21.6875C38.409 21.5132 38.3764 21.1794 38.5426 20.8245C38.8311 20.2008 39.3575 19.8475 39.9507 19.5528C40.9938 19.0351 42.1619 18.8217 43.3209 18.9373C43.7218 18.9748 44.1619 19.0562 44.3085 19.5105C44.4715 20.0071 44.2173 20.3946 43.8457 20.7089C42.964 21.4546 41.89 21.7591 40.7932 21.9805C40.5569 22.0278 40.3141 22.0392 40.0762 22.0668L40.042 22.1401Z" fill="#017732"></path>
  <path d="M54.8674 19.9794C54.284 19.8459 53.681 19.7677 53.1236 19.5626C52.4245 19.3053 52.343 18.7484 52.858 18.2046C53.5099 17.524 54.3606 17.2521 55.2488 17.1723C56.0097 17.1259 56.7732 17.1471 57.5304 17.2358C57.9476 17.2749 58.3811 17.4588 58.4854 17.9262C58.5897 18.3935 58.2588 18.7208 57.9231 18.9699C57.0493 19.6162 55.9776 19.9386 54.8919 19.8817L54.8674 19.9794Z" fill="#017732"></path>
  <path d="M25.6402 25.7809C25.3599 25.6474 24.9704 25.5823 24.8074 25.3543C24.5728 25.0287 24.7797 24.6281 24.9981 24.3139C25.4952 23.599 26.1911 23.1301 26.9798 22.7898C27.7686 22.4495 28.5362 22.1304 29.3967 22.0978C29.796 22.0815 30.1969 22.1271 30.3876 22.557C30.5782 22.9868 30.3598 23.3548 30.0877 23.6544C29.3462 24.4685 28.4058 24.9896 27.3807 25.3478C26.8429 25.5351 26.2693 25.6279 25.6402 25.7809Z" fill="#017732"></path>
  <path d="M69.4631 16.4851C70.3473 16.4523 71.2201 16.6922 71.9631 17.1723C72.5384 17.55 72.5644 18.0906 72.0005 18.4749C70.5974 19.4291 68.3239 19.5186 66.9142 18.4244C66.3618 17.9945 66.3666 17.5631 66.9387 17.156C67.6851 16.6105 68.5651 16.5031 69.4631 16.4851Z" fill="#017732"></path>
  <path d="M12.2391 30.9002C11.5644 30.9719 11.3754 30.5371 11.6492 29.977C11.9183 29.3722 12.3387 28.8468 12.8698 28.4513C13.7189 27.8537 14.5761 27.2757 15.5979 27.0103C15.8448 26.9474 16.0999 26.9233 16.3541 26.9386C17.0305 26.9826 17.332 27.5053 16.9522 28.0589C16.6018 28.5474 16.1942 28.9923 15.7381 29.3843C14.876 30.1479 13.8379 30.5827 12.728 30.8579C12.5662 30.883 12.4029 30.8972 12.2391 30.9002Z" fill="#017732"></path>
  <path d="M46.1974 17.7796C45.8583 17.7292 45.5238 17.6524 45.1967 17.55C44.6361 17.3449 44.509 16.8434 44.949 16.4526C45.329 16.1145 45.7653 15.8456 46.2381 15.658C47.4148 15.2004 48.6321 14.9481 49.8968 15.2851C50.5911 15.4707 50.7426 15.9836 50.2228 16.4917C49.9578 16.7539 49.6489 16.9677 49.3101 17.1234C48.3779 17.5386 47.3903 17.7161 46.1974 17.7796Z" fill="#017732"></path>
  <path d="M32.2112 20.6389C31.9578 20.6203 31.7058 20.5861 31.4566 20.5363C31.0231 20.4207 30.927 20.1813 31.1437 19.7808C31.4697 19.1864 31.9961 18.8038 32.5779 18.5237C33.6542 17.9959 34.8371 17.7208 36.0361 17.7194C36.7809 17.7194 36.9096 18.1704 36.5772 18.7224C36.1926 19.3607 35.5456 19.6798 34.8921 19.9729C34.0535 20.3759 33.141 20.6026 32.2112 20.6389Z" fill="#017732"></path>
  <path d="M60.9039 16.2718C60.4149 16.2344 59.9114 16.2132 59.4192 16.1481C59.2203 16.117 59.0328 16.0351 58.8749 15.9104C58.3582 15.5098 58.4088 14.8504 59.0085 14.5784C59.4848 14.3667 59.9849 14.2131 60.4981 14.1209C61.5346 13.9288 62.5792 13.849 63.5945 14.2219C63.7342 14.2691 63.8685 14.3307 63.9954 14.4058C64.3214 14.611 64.3719 14.878 64.147 15.1923C63.7998 15.6808 63.2946 15.9234 62.7405 16.0716C62.4421 16.1484 62.1371 16.197 61.8295 16.2165C61.5215 16.2409 61.2102 16.2165 60.9006 16.2165L60.9039 16.2718Z" fill="#017732"></path>
  <path d="M22.6693 21.5963C22.8762 21.6858 23.2071 21.7298 23.2608 21.8763C23.3309 22.0669 23.2413 22.3778 23.1174 22.57C22.4835 23.5469 21.5138 24.1038 20.4822 24.55C19.9201 24.7645 19.3453 24.9445 18.7612 25.0889C18.6174 25.1248 18.4684 25.1347 18.3212 25.1182C17.8584 25.0775 17.6514 24.76 17.8975 24.3757C18.1491 23.9819 18.4571 23.6269 18.8117 23.3222C19.7926 22.5164 20.9529 21.958 22.195 21.694C22.3412 21.671 22.4887 21.6579 22.6367 21.6549L22.6693 21.5963Z" fill="#017732"></path>
  <path d="M75.1801 16.3207C74.3392 16.1106 73.4412 15.9153 72.5726 15.6466C72.3689 15.5847 72.1081 15.2607 72.1179 15.0718C72.1293 14.8504 72.4096 14.6436 72.5791 14.4352C72.6104 14.4093 72.6481 14.3924 72.6883 14.3863C73.4274 14.1196 74.2131 14.0058 74.9975 14.052C75.782 14.0982 76.5489 14.3033 77.2515 14.655C77.4552 14.7559 77.6899 15.0555 77.6833 15.2558C77.6558 15.3808 77.5987 15.4973 77.5167 15.5956C77.4348 15.6939 77.3304 15.7712 77.2124 15.8208C76.5817 16.0325 75.9216 16.1465 75.1801 16.3207Z" fill="#017732"></path>
  <path d="M9.95915 27.1715C10.4904 27.1715 10.6909 27.4043 10.4693 27.7821C10.1802 28.2628 9.83318 28.7063 9.43602 29.1026C8.53234 30.0147 7.41721 30.6898 6.18964 31.0679C6.06246 31.1083 5.93219 31.1383 5.80014 31.1575C5.4253 31.2079 5.19225 30.9767 5.34056 30.6397C5.50203 30.2718 5.71733 29.9299 5.9794 29.6253C6.96337 28.5098 8.23264 27.683 9.65114 27.2333C9.75198 27.2045 9.85499 27.1838 9.95915 27.1715Z" fill="#017732"></path>
  <path d="M38.6632 16.521C38.3757 16.4882 38.0901 16.4404 37.8076 16.3777C37.4344 16.2735 37.3024 15.9771 37.5713 15.7117C37.9525 15.3204 38.3924 14.9908 38.8751 14.7348C39.9811 14.2041 41.2024 13.9583 42.4278 14.0199C42.6527 14.0199 43.0325 14.1567 43.0602 14.2886C43.0689 14.4166 43.0519 14.5451 43.0102 14.6665C42.9685 14.7878 42.9029 14.8996 42.8173 14.9953C42.2437 15.6564 41.4239 15.8957 40.6221 16.1188C39.9507 16.2963 39.2581 16.394 38.6632 16.521Z" fill="#017732"></path>
  <path d="M54.8413 12.167C55.2747 12.2142 55.705 12.2854 56.1304 12.3803C56.6764 12.5252 56.7937 12.9648 56.3407 13.2872C55.8956 13.5977 55.399 13.827 54.8739 13.9646C53.8635 14.23 52.8254 14.3814 51.7775 14.2153C51.7107 14.2056 51.6292 14.2153 51.5819 14.1779C51.3782 14.0265 51.0588 13.8864 51.0213 13.6894C50.9838 13.4924 51.1843 13.2009 51.3733 13.0495C51.9812 12.5773 52.7162 12.3982 53.4675 12.2891C53.8733 12.237 54.284 12.2175 54.8413 12.167Z" fill="#017732"></path>
  <path d="M67.0968 11.5661C67.8774 11.685 68.5146 11.7713 69.1469 11.8918C69.3439 11.9345 69.5316 12.0123 69.701 12.1214C70.0596 12.3445 70.0824 12.7727 69.7141 12.9665C69.3596 13.1527 68.9779 13.2818 68.5831 13.3491C67.4537 13.5461 66.3161 13.634 65.1916 13.3279C64.8657 13.2384 64.4273 13.1814 64.3898 12.7662C64.3523 12.3233 64.7907 12.1719 65.1167 12.0693C65.8011 11.8495 66.5101 11.7094 67.0968 11.5661Z" fill="#017732"></path>
  <path d="M24.7585 20.1162C24.6428 20.0543 24.3641 19.9941 24.3136 19.8508C24.2631 19.7075 24.3772 19.4307 24.5043 19.2907C25.2849 18.4472 26.297 17.988 27.3726 17.6542C27.9348 17.4914 28.5134 17.3758 29.0919 17.2521C29.2108 17.2285 29.3332 17.2285 29.4521 17.2521C29.8172 17.3204 29.941 17.5435 29.69 17.8122C29.2725 18.2797 28.7972 18.6922 28.2754 19.0399C27.2357 19.688 26.0509 19.9403 24.7585 20.1162Z" fill="#017732"></path>
  <path d="M12.0224 25.426C11.892 25.3739 11.672 25.3494 11.6345 25.255C11.6229 25.178 11.6268 25.0995 11.6458 25.0241C11.6648 24.9486 11.6986 24.8777 11.7453 24.8154C12.3695 23.8596 13.3033 23.262 14.2811 22.7426C14.8581 22.4381 15.4904 22.2378 16.0983 21.9903C16.1491 21.965 16.2045 21.95 16.2612 21.9464C16.4812 21.9545 16.7013 21.974 16.9229 21.9887C16.8593 22.2085 16.8626 22.4951 16.7208 22.64C16.2903 23.1169 15.8076 23.544 15.2818 23.9133C14.4799 24.4016 13.653 24.8478 12.8046 25.2501C12.5781 25.3608 12.3043 25.3641 12.0224 25.426Z" fill="#017732"></path>
  <path d="M45.1495 12.9974C44.8937 13.0148 44.637 13.011 44.3819 12.986C44.2189 12.9567 43.9761 12.8525 43.9337 12.7271C43.8913 12.6017 44.0266 12.3559 44.1553 12.2696C44.4813 12.0563 44.8203 11.8153 45.1853 11.7453C46.3668 11.514 47.5614 11.3528 48.7527 11.1737C48.8861 11.1576 49.0214 11.1738 49.1471 11.221C49.3062 11.2927 49.4598 11.376 49.6067 11.4701C49.5057 11.6199 49.4437 11.8397 49.3003 11.9081C48.6876 12.2093 48.0748 12.5415 47.4245 12.7222C46.6912 12.9209 45.9154 12.9616 45.1576 13.0707L45.1495 12.9974Z" fill="#017732"></path>
  <path d="M31.4485 15.9804C31.3946 15.9895 31.3395 15.9895 31.2855 15.9804C31.1226 15.9152 30.9596 15.8403 30.7966 15.7687C30.8683 15.6059 30.896 15.3812 31.0183 15.3046C31.5517 14.9475 32.113 14.6338 32.6969 14.3668C33.6954 13.9243 34.7662 13.6672 35.8569 13.608C36.0356 13.6308 36.2098 13.6807 36.3735 13.7562C36.2855 13.919 36.235 14.1355 36.1013 14.2544C35.337 14.9513 34.395 15.3177 33.4172 15.588C32.7653 15.7671 32.1134 15.8941 31.4615 16.0439L31.4485 15.9804Z" fill="#017732"></path>
  <path d="M59.385 11.6866C58.6679 11.5629 58.1236 11.4896 57.5923 11.361C57.4391 11.3252 57.2256 11.1461 57.2142 11.0174C57.231 10.9295 57.2696 10.8471 57.3266 10.778C57.3835 10.7088 57.457 10.6551 57.5401 10.6217C58.1513 10.4264 58.7722 10.1854 59.4013 10.1333C60.3104 10.0874 61.2216 10.1076 62.1278 10.1935C62.3706 10.2114 62.7536 10.4003 62.7976 10.5778C62.884 10.9279 62.4716 10.993 62.2239 11.0532C61.2265 11.3007 60.2292 11.5026 59.385 11.6866Z" fill="#017732"></path>
  <path d="M4.57785 28.1354C4.87935 28.168 5.01299 28.2885 4.85816 28.5376C4.68657 28.825 4.49084 29.0974 4.2731 29.3517C3.25988 30.4898 2.03643 31.4219 0.66981 32.097C0.479135 32.1914 0.2249 32.1572 0 32.1817C0.0472616 31.9472 0.0244456 31.659 0.162971 31.488C0.464066 31.0767 0.81618 30.7052 1.21088 30.3824C2.09581 29.692 3.02637 29.0586 3.94879 28.4073C4.14798 28.2941 4.35891 28.203 4.57785 28.1354Z" fill="#017732"></path>
  <path d="M23.1435 17.5337C23.2348 17.5842 23.4222 17.6282 23.4792 17.7389C23.4907 17.808 23.4848 17.8788 23.4621 17.9451C23.4393 18.0113 23.4004 18.0708 23.3488 18.1183C22.9421 18.465 22.5059 18.7756 22.0451 19.0464C21.0086 19.6 19.9851 20.2041 18.7857 20.3897C18.6968 20.4208 18.6026 20.4341 18.5086 20.4288C18.3733 20.3914 18.1827 20.3425 18.1403 20.2432C18.0979 20.1439 18.1957 19.9501 18.2919 19.8752C18.6629 19.5685 19.0586 19.2929 19.475 19.0513C20.5376 18.4781 21.5936 17.892 22.7915 17.6168L23.1435 17.5337Z" fill="#017732"></path>
  <path d="M73.0191 11.6362C72.3281 11.5108 71.5524 11.3724 70.7783 11.2258C70.662 11.1986 70.5516 11.1506 70.4523 11.0842C70.1476 10.892 70.1557 10.6087 70.4963 10.4915C70.888 10.3512 71.2951 10.2583 71.7088 10.2147C72.7697 10.1167 73.8394 10.2004 74.8721 10.4622C74.9386 10.4699 75.0029 10.4909 75.0611 10.5241C75.2241 10.6592 75.3871 10.8057 75.5501 10.949C75.3871 11.0809 75.2241 11.2942 75.0416 11.3333C74.4076 11.4587 73.7688 11.5271 73.0191 11.6362Z" fill="#017732"></path>
  <path d="M51.6504 10.4459C51.3456 10.4084 51.036 10.3889 50.7361 10.3254C50.6269 10.3026 50.4688 10.1854 50.4591 10.0974C50.464 10.0334 50.4845 9.97163 50.5189 9.91741C50.5533 9.86319 50.6004 9.81822 50.6562 9.78645C51.0376 9.62362 51.4271 9.43963 51.8296 9.38915C52.959 9.24749 54.0966 9.15468 55.2325 9.07489C55.5405 9.05373 55.9332 9.07489 56.0278 9.438C56.0473 9.51453 55.6008 9.78808 55.3417 9.84181C54.1243 10.0926 52.8971 10.2977 51.6732 10.5192L51.6504 10.4459Z" fill="#017732"></path>
  <path d="M43.1449 10.9963C42.9748 11.151 42.791 11.2899 42.5957 11.4115C41.1922 12.1368 39.6444 12.5401 38.0651 12.592C37.9021 12.592 37.7392 12.4747 37.5762 12.4112C37.6821 12.2484 37.7522 12.0367 37.9021 11.9488C38.8066 11.4163 39.8203 11.1868 40.8356 10.9995C41.4142 10.892 42.0025 10.8367 42.5892 10.7732C42.7663 10.7802 42.9417 10.8108 43.1107 10.8644L43.1449 10.9963Z" fill="#017732"></path>
  <path d="M11.4047 23.0552C11.2991 23.245 11.1734 23.4229 11.0299 23.586C9.83856 24.6786 8.55434 25.6507 7.07457 26.328C6.82196 26.4436 6.30861 26.5202 6.24016 26.4111C6.02993 26.0854 6.40313 25.8428 6.63455 25.6897C7.96113 24.8023 9.30564 23.9442 10.6567 23.0959C10.8343 22.9836 11.0837 22.9819 11.2988 22.9331L11.4047 23.0552Z" fill="#017732"></path>
  <path d="M65.894 9.74737C65.0661 9.68224 64.4615 9.6513 63.8618 9.57477C63.6988 9.55523 63.557 9.39892 63.4055 9.30448C63.5407 9.19213 63.6597 9.03093 63.8161 8.97883C64.9993 8.57664 66.2232 8.59456 67.4471 8.69062C67.7411 8.71517 68.0309 8.777 68.3093 8.87462C68.4659 8.95444 68.6098 9.05706 68.7362 9.1791C68.5733 9.26703 68.4347 9.40706 68.2701 9.43311C67.4097 9.56175 66.5459 9.6627 65.894 9.74737Z" fill="#017732"></path>
  <path d="M24.8074 16.1334C24.9345 15.9959 25.0735 15.8701 25.223 15.7573C26.7012 14.8471 28.3374 14.3456 30.0062 13.932C30.1358 13.9251 30.2656 13.9388 30.3908 13.9727C29.972 14.9432 25.8847 16.5405 24.8074 16.1334Z" fill="#017732"></path>
  <path d="M12.7655 21.5588C13.1827 20.6617 16.6556 18.7663 17.9985 18.6459C17.9235 18.7761 17.8942 18.895 17.8192 18.9455C16.4226 19.898 15.0487 20.8994 13.4353 21.4693C13.2153 21.52 12.9911 21.55 12.7655 21.5588Z" fill="#017732"></path>
  <path d="M62.4847 8.07514C60.6741 8.52943 58.8504 8.76715 56.9045 8.50011C57.501 7.76739 61.6959 7.46942 62.4847 8.07514Z" fill="#017732"></path>
  <path d="M49.8658 8.8681C49.1406 9.55686 45.1022 10.2766 44.3705 9.86623C44.9099 9.28169 49.1194 8.50174 49.8658 8.8681Z" fill="#017732"></path>
  <path d="M69.4549 8.11584C69.808 8.02878 70.1678 7.97159 70.5305 7.94487C71.4057 7.94487 72.2809 7.98884 73.1544 8.03768C73.5429 8.06506 73.9289 8.11947 74.3098 8.20051C74.4353 8.22494 74.5396 8.34868 74.6537 8.42847C74.5413 8.50011 74.4304 8.632 74.3164 8.63526C73.3385 8.67434 72.377 8.71993 71.409 8.69876C70.8609 8.66222 70.3163 8.58604 69.7793 8.4708C69.6597 8.42856 69.5471 8.36874 69.4452 8.29332L69.4549 8.11584Z" fill="#017732"></path>
  <path d="M37.2633 11.1705C36.732 11.8706 32.7506 13.1114 31.9309 12.8508C32.3155 12.2712 36.4941 10.9376 37.2633 11.1705Z" fill="#017732"></path>
  <path d="M19.7504 17.3481C20.3779 16.7375 24.4766 14.9301 24.9508 15.0376C24.5059 15.627 20.5474 17.4019 19.7504 17.3481Z" fill="#017732"></path>
  <path d="M9.19009 22.8044C6.86775 18.1215 6.62493 13.4566 8.7794 8.73621C11.4375 2.91515 17.5244 -0.219273 22.7949 0.0119407C30.4545 0.337594 35.0063 4.84302 37.0223 10.5729C27.1316 13.1716 17.8927 17.2748 9.19009 22.8044Z" fill="#FCD30B"></path>
  <path d="M73.6983 37.3641C74.5734 38.0859 74.6129 39.198 73.7688 39.9128C72.9246 40.6277 71.9142 40.7639 70.8711 40.6215C70.2144 40.5306 69.5555 40.4108 69.0086 39.877C68.1712 39.0632 68.2106 37.8325 69.1419 37.2718C70.5963 36.3939 72.2798 36.182 73.6983 37.3641Z" fill="#017732"></path>
  <path d="M69.0746 44.0423C70.0005 44.8061 70.0423 45.9829 69.1491 46.7393C68.2559 47.4958 67.1867 47.6399 66.0829 47.4892C65.388 47.393 64.6908 47.2663 64.1121 46.7014C63.226 45.8402 63.2677 44.538 64.2531 43.9447C65.7711 43.0284 67.634 42.8419 69.0746 44.0423Z" fill="#017732"></path>
  <path d="M94.5755 26.4305L96.2881 20.0812L102.971 3.03822H107.876L98.6011 26.4305H94.5755ZM94.0751 26.4305L85.2121 3.03822H90.1162L96.2881 20.0812L98.1007 26.4305H94.0751Z" fill="#2A4475"></path>
  <path d="M112.669 26.4305V3.03822H117.239V26.4305H112.669Z" fill="#2A4475"></path>
  <path d="M134.178 26.8315C131.909 26.8315 129.897 26.3191 128.14 25.2943C126.382 24.2472 125.004 22.8214 124.003 21.0169C123.002 19.19 122.501 17.0959 122.501 14.7344C122.501 12.3729 123.002 10.2898 124.003 8.48528C125.004 6.65845 126.371 5.23264 128.106 4.20783C129.863 3.16075 131.876 2.63721 134.145 2.63721C135.746 2.63721 137.236 2.92683 138.615 3.50606C139.994 4.06302 141.195 4.8539 142.218 5.87871C143.263 6.88124 144.064 8.03971 144.62 9.35413L140.383 10.9248C140.005 10.1005 139.505 9.38755 138.882 8.78604C138.259 8.16224 137.547 7.68326 136.747 7.34908C135.946 6.99263 135.079 6.8144 134.145 6.8144C132.788 6.8144 131.576 7.15972 130.508 7.85034C129.463 8.5187 128.64 9.44325 128.039 10.624C127.461 11.8048 127.172 13.1749 127.172 14.7344C127.172 16.2938 127.472 17.6751 128.073 18.8781C128.673 20.0589 129.507 20.9946 130.575 21.6852C131.642 22.3536 132.866 22.6877 134.245 22.6877C135.201 22.6877 136.068 22.5095 136.847 22.1531C137.647 21.7743 138.348 21.2619 138.949 20.6159C139.571 19.9698 140.072 19.2235 140.45 18.3769L144.687 19.9141C144.131 21.2731 143.33 22.4761 142.285 23.5232C141.262 24.5703 140.061 25.3834 138.682 25.9627C137.303 26.5419 135.801 26.8315 134.178 26.8315Z" fill="#2A4475"></path>
  <path d="M150.49 26.4305V3.03822H165.269V7.21541H155.06V11.1921H163.868V15.269H155.06V22.2533H165.402V26.4305H150.49Z" fill="#2A4475"></path>
  <path d="M171.025 26.4305V3.03822H175.795L185.87 18.7445V3.03822H190.408V26.4305H185.87L175.595 11.3146V26.4305H171.025Z" fill="#2A4475"></path>
  <path d="M201.543 26.4305V7.21541H195.426V3.03822H211.751V7.21541H206.113V26.4305H201.543Z" fill="#2A4475"></path>
  <path d="M216.088 26.4305V3.03822H230.867V7.21541H220.658V11.1921H229.465V15.269H220.658V22.2533H231V26.4305H216.088Z" fill="#2A4475"></path>
  <path d="M91.6146 49.1888V35.6201H86.6933V32.6704H99.723V35.6201H94.8252V49.1888H91.6146Z" fill="#2A4475"></path>
  <path d="M109.038 49.1888V32.6704H116.01C117.166 32.6704 118.189 32.8985 119.08 33.3547C119.97 33.811 120.666 34.4402 121.166 35.2426C121.665 36.0291 121.915 36.9495 121.915 38.0035C121.915 39.0418 121.65 39.97 121.119 40.788C120.603 41.5903 119.892 42.2196 118.986 42.6758C118.08 43.1163 117.049 43.3366 115.893 43.3366H112.249V49.1888H109.038ZM119.232 49.1888L115.143 42.5578L117.603 40.788L122.865 49.1888H119.232ZM112.249 40.3868H116.033C116.518 40.3868 116.947 40.2846 117.322 40.0801C117.713 39.8756 118.017 39.5924 118.236 39.2306C118.471 38.8687 118.588 38.4597 118.588 38.0035C118.588 37.2956 118.33 36.7213 117.814 36.2809C117.314 35.8404 116.666 35.6201 115.869 35.6201H112.249V40.3868Z" fill="#2A4475"></path>
  <path d="M144.024 49.1888L137.743 32.6704H140.954L147.422 49.1888H144.024ZM131.064 49.1888L137.532 32.6704H140.743L134.462 49.1888H131.064ZM134.111 45.5547V42.6994H144.399V45.5547H134.111Z" fill="#2A4475"></path>
  <path d="M156.886 49.1888V32.6704H163.272C164.428 32.6704 165.452 32.9064 166.342 33.3783C167.233 33.8346 167.928 34.4796 168.428 35.3133C168.928 36.1314 169.178 37.0832 169.178 38.1687C169.178 39.2384 168.936 40.1902 168.451 41.024C167.967 41.8578 167.303 42.5185 166.459 43.0062C165.616 43.4781 164.639 43.7141 163.53 43.7141H160.097V49.1888H156.886ZM160.097 40.7408H163.46C164.178 40.7408 164.764 40.5048 165.217 40.0329C165.686 39.5452 165.92 38.9238 165.92 38.1687C165.92 37.4135 165.663 36.8 165.147 36.328C164.647 35.8561 163.999 35.6201 163.202 35.6201H160.097V40.7408Z" fill="#2A4475"></path>
  <path d="M188.993 49.1888L182.712 32.6704H185.923L192.391 49.1888H188.993ZM176.033 49.1888L182.501 32.6704H185.712L179.431 49.1888H176.033ZM179.08 45.5547V42.6994H189.368V45.5547H179.08Z" fill="#2A4475"></path>
  <path d="M201.562 49.1888V32.6704H204.914L213.221 43.7613V32.6704H216.408V49.1888H213.221L204.773 38.1805V49.1888H201.562Z" fill="#2A4475"></path>
  <path d="M226.308 49.1888V32.6704H229.519V49.1888H226.308Z" fill="#2A4475"></path>
</svg>
