<svg version="1.1" xmlns="http://www.w3.org/2000/svg" style="display: block;" viewBox="0 0 2048 2048" width="2048" height="2048" preserveAspectRatio="none">
<path transform="translate(0,0)" fill="rgb(255,255,255)" d="M 0 0 L 2048 0 L 2048 2048 L 0 2048 L 0 0 z"/>
<path transform="translate(0,0)" fill="rgb(22,59,108)" d="M 552.081 515.492 C 690.574 397.823 861.453 342.067 1042.93 346.959 C 1081.72 348.004 1125.26 351.417 1163.07 360.123 C 1338.74 389.863 1495.77 487.258 1600.48 631.422 C 1721.79 799.635 1747.03 1027.19 1686.15 1223.41 C 1656.51 1318.96 1601.19 1408.32 1530.12 1478.72 C 1508.12 1500.88 1484.4 1521.28 1459.21 1539.73 C 1449.04 1547.03 1418.97 1569.37 1408.41 1573.5 C 1400.39 1566.03 1388.79 1548.28 1381.57 1538.34 L 1329.04 1466.63 C 1310.09 1441.25 1290.88 1416.07 1271.41 1391.09 C 1257.98 1374.2 1227.75 1340.45 1219.5 1322.8 C 1237.79 1309.1 1257.22 1295.33 1273.83 1279.7 C 1330.34 1225.52 1366.91 1153.86 1377.65 1076.32 C 1384.73 1024.86 1383.09 972.581 1372.81 921.667 C 1367.65 898.432 1359.31 873.291 1350.38 851.174 C 1345.95 840.221 1337.12 825.996 1332.95 815.353 L 1332.44 814.025 C 1329.29 810.228 1326.04 804.523 1323.34 800.26 C 1252.78 688.486 1131.09 628.643 997.82 636.658 C 904.886 642.646 818.216 685.58 757.144 755.884 C 632.784 897.398 631.615 1143.31 770.236 1276.02 C 790.1 1295.04 812.123 1309.69 832.593 1327.63 C 788.994 1379.93 750.929 1427.53 710.803 1483.11 C 695.777 1504.1 680.962 1525.25 666.36 1546.54 C 659.679 1556.46 653.923 1566.39 647.041 1576.23 C 629.039 1570.47 617.895 1560.82 602.696 1550.22 C 414.703 1419.09 316.244 1199.64 330.695 972.314 C 342.388 788.386 414.695 637.681 552.081 515.492 z"/>
<path transform="translate(0,0)" fill="rgb(30,64,120)" d="M 552.081 515.492 C 690.574 397.823 861.453 342.067 1042.93 346.959 C 1081.72 348.004 1125.26 351.417 1163.07 360.123 L 1161.57 360.252 C 1139.65 361.982 1112.37 357.209 1090.21 355.488 C 1085.4 355.115 1079.65 359.841 1075.11 357.302 C 1064.75 351.506 1059.3 364.295 1045 357.264 L 1044.82 355.908 L 1051.35 357.394 L 1052.13 356.388 L 1050.49 353.285 C 1045.54 353.035 1043.58 356.479 1041.32 356.448 C 1023.74 356.204 1007.65 354.618 990.311 358.851 C 986.151 359.867 974.957 356.37 970.225 356.493 C 963.31 356.793 953.555 357.511 946.584 358.286 C 937.814 359.262 926.189 359.007 917.897 360.243 C 893.124 363.933 867.125 369.029 842.743 374.703 C 838.234 375.752 828.82 379.887 823.587 381.497 C 815.358 384.027 799.532 386.247 792.254 389.273 C 771.465 397.916 750.553 403.546 730.431 413.777 C 728.334 414.844 721.069 415.484 717.899 417.11 C 711.997 420.139 706.859 423.72 701.085 427.009 C 694.146 430.963 691.212 424.237 683.991 428.557 C 682.944 431.054 684.513 433.725 683.942 435.048 C 683.442 436.204 660.732 447.5 658.027 449.03 C 647.834 454.796 638.296 462.031 628.574 468.567 C 619.701 474.532 610.443 479.996 601.844 486.354 C 588.512 496.211 575.728 506.476 561.594 515.25 C 558.43 515.364 555.245 515.521 552.081 515.492 z"/>
<path transform="translate(0,0)" fill="rgb(30,64,120)" d="M 1332.44 814.025 C 1332.36 808.76 1329.85 804.013 1327.09 799.592 C 1332.07 800.837 1333.48 803.806 1335.53 804.517 C 1338.2 807.525 1337.2 806.891 1338.94 809.876 C 1349.92 828.721 1357.23 842.525 1363.57 863.79 L 1362.28 864.634 C 1360.74 861.259 1358.88 856.578 1356.63 853.783 C 1356.22 858.642 1362.32 872.562 1364.26 878.126 C 1367.65 887.869 1370.94 895.985 1373.21 906.362 C 1374.71 913.254 1374.47 918.643 1376.84 925.067 C 1375.19 923.852 1374.32 923.06 1372.81 921.667 C 1367.65 898.432 1359.31 873.291 1350.38 851.174 C 1345.95 840.221 1337.12 825.996 1332.95 815.353 L 1332.44 814.025 z"/>
<path transform="translate(0,0)" fill="rgb(254,49,59)" d="M 1022.68 1290.25 C 1034.06 1290.25 1043.26 1292.98 1051.65 1300.98 C 1068.39 1316.92 1085.22 1338.37 1100.32 1356.19 C 1150.4 1415.96 1198.92 1477.01 1245.83 1539.3 C 1270.36 1571.43 1294.99 1605.09 1317.65 1638.57 C 1320.7 1643.08 1322.86 1650.04 1323 1655.48 C 1323.64 1681.13 1306.03 1689.82 1283.86 1693.22 C 1256.88 1696.93 1230.17 1697.41 1203.34 1698.07 C 1147.17 1699.02 1090.98 1699.13 1034.8 1698.4 C 975.311 1698.65 916.167 1697.09 856.69 1695.47 C 827.365 1694.66 796.764 1696.11 767.573 1693.68 C 760.999 1693.13 753.571 1690.35 747.97 1686.84 C 739.532 1681.54 733.565 1673.08 731.394 1663.35 C 728.927 1652.23 732.982 1642.47 739.045 1633.34 C 753.076 1612.21 768.025 1591.02 782.72 1570.35 C 833.291 1499.58 887.19 1431.25 944.235 1365.6 C 962.196 1344.69 981.053 1321.38 1000.72 1301.86 C 1006.71 1295.91 1014.48 1292.25 1022.68 1290.25 z"/>
</svg>